<?xml version="1.0" standalone="yes"?>
<svg xmlns="http://www.w3.org/2000/svg" width="1600" height="1000">
<path style="fill:#000000; stroke:none;" d="M0 0L0 1000L1000 1000L1000 701L1000 638C1000 629.952 997.662 617.573 1000.6 610.043C1002.35 605.571 1008.16 603.35 1012 601L1012 663C1012 668.998 1009.61 681.747 1013.74 686.566C1019.13 692.85 1031.97 681.892 1037 679C1053.35 669.603 1069.61 660.04 1086 650.719C1091.74 647.453 1102.39 643.663 1105.82 637.79C1108.5 633.209 1107 625.128 1107 620L1107 576C1107 570.462 1105 559.951 1108.6 555.379C1113.6 549.049 1125.13 545.122 1132 541C1151.38 529.373 1171 517.533 1191 507L1191 563C1191 568.402 1188.96 579.205 1192.74 583.562C1197.78 589.376 1210.26 578.979 1215 576.281C1231.05 567.149 1247.03 557.847 1263 548.576C1268.56 545.351 1278.61 541.703 1281.82 535.896C1284.08 531.802 1283 525.513 1283 521L1283 486C1283 481.463 1281.66 474.262 1284.03 470.21C1286.87 465.346 1295.27 462.417 1300 459.719C1310.71 453.614 1321.3 447.29 1332 441.15C1336.42 438.613 1343.2 435.98 1346.26 431.787C1349.88 426.806 1348 416.859 1348 411L1348 358C1348 352.61 1350.5 338.886 1342.96 337.542C1337.02 336.485 1327.9 344.132 1323 347.011C1306.39 356.767 1289.63 366.286 1273 376L1273 309L1273 290C1273 286.915 1272.41 283.024 1273.6 280.104C1276 274.226 1286.8 270.591 1292 267.576L1330 245.424C1335.1 242.466 1342.77 239.751 1346.26 234.815C1350.34 229.041 1348 216.787 1348 210L1348 147C1348 140.768 1348.59 134.199 1347.89 128.004C1347.6 125.406 1346.63 122.722 1343.89 121.847C1338.15 120.014 1328.74 128.025 1324 130.719C1305.93 141 1287.95 151.515 1270 162L1270 92L1270 73C1270 70.178 1270.36 66.7476 1268.82 64.2284C1264.3 56.8535 1252.77 66.6871 1248 69.4213C1232.3 78.4205 1216.65 87.4935 1201 96.5756C1195.63 99.6916 1186.22 102.883 1183.74 109.04C1181.3 115.13 1183 124.511 1183 131L1183 180C1183 186.207 1185.49 199.453 1181.4 204.471C1175.89 211.225 1163.51 215.685 1156 220C1136.97 230.938 1117.95 241.931 1099 253L1099 187C1099 180.815 1101.5 167.39 1097.26 162.434C1092.1 156.417 1080.81 165.82 1076 168.579C1060.64 177.386 1045.36 186.335 1030 195.15C1024.92 198.064 1015.15 201.39 1012.74 207.104C1010.33 212.813 1012 221.883 1012 228L1012 274C1012 280.043 1014.17 291.385 1010.97 296.671C1008.83 300.203 1003.59 302.322 1000 304L1000 0L0 0z"/>
<path style="fill:#ffffff; stroke:none;" d="M1000 0L1000 304C1003.67 302.839 1008.78 300.865 1010.97 297.471C1014.1 292.622 1012 281.625 1012 276L1012 229C1012 222.795 1010.39 213.867 1012.74 208.043C1015.17 202.046 1024.72 198.726 1030 195.719C1045.38 186.954 1060.62 177.928 1076 169.15C1080.98 166.309 1092.22 156.673 1097.26 163.232C1101.43 168.658 1099 181.47 1099 188L1099 253C1106.77 249.765 1113.72 245.027 1121 240.85L1162 217.15C1167.35 214.078 1180.88 209.124 1182.68 202.815C1184.52 196.413 1183 187.643 1183 181L1183 134C1183 126.847 1180.6 114.247 1184.74 108.093C1188.57 102.406 1197.25 99.3644 1203 95.9892C1217.6 87.4125 1232.31 79.002 1247 70.5787C1251.93 67.7533 1263.3 57.7806 1268.26 64.2322C1270.16 66.711 1269.98 70.0481 1270 73L1270 91L1270 162C1288.84 154.154 1306.27 141.38 1324 131.281C1328.49 128.72 1338.52 120.293 1343.89 122.392C1350.94 125.146 1348 142.036 1348 148L1348 202C1348 210.848 1348.88 220.207 1347.89 229C1346.9 237.831 1335.71 241.528 1329 245.424L1291 267.576C1285.99 270.486 1278.4 273.141 1274.6 277.61C1272.65 279.916 1273.01 283.177 1273 286L1273 304L1273 376C1291.11 368.458 1308.04 356.269 1325 346.424C1329.28 343.938 1338.77 336.02 1343.89 338.287C1350.3 341.125 1348 353.445 1348 359L1348 407C1348 413.531 1349.68 422.84 1347.26 428.985C1345.02 434.671 1336.96 437.697 1332 440.576C1321 446.958 1310.05 453.425 1299 459.719C1294.58 462.237 1286.8 464.942 1284.03 469.379C1281.61 473.246 1283 480.606 1283 485L1283 519C1283 523.837 1284.16 530.543 1281.82 534.957C1278.58 541.076 1268.74 544.617 1263 547.989C1247.07 557.343 1231.05 566.576 1215 575.719C1210.34 578.373 1198.56 588.249 1193.43 583.523C1188.94 579.387 1191 568.514 1191 563L1191 507C1182.89 509.953 1175.48 515.292 1168 519.579C1154.63 527.245 1141.23 534.902 1128 542.799C1122.57 546.042 1109.13 550.573 1107.32 557.104C1105.76 562.73 1107 570.182 1107 576L1107 616C1107 622.092 1109 632.61 1105.26 637.79C1100.88 643.857 1090.39 647.647 1084 651.281C1068.27 660.222 1052.69 669.424 1037 678.421C1031.82 681.388 1018.96 692.552 1013.74 685.768C1009.69 680.497 1012 668.33 1012 662L1012 601C1008.34 602.578 1003.14 604.6 1001.03 608.21C997.855 613.64 1000 624.845 1000 631L1000 698L1000 1000L1600 1000L1600 0L1000 0z"/>
<path style="fill:#04639b; stroke:none;" d="M497.667 19.3333C497.222 19.778 498.278 19.7222 498.333 19.6667C498.778 19.2224 497.722 19.2776 497.667 19.3333z"/>
<path style="fill:#023554; stroke:none;" d="M495 20L496 21L495 20z"/>
<path style="fill:#08a3ff; stroke:none;" d="M87 257C130.019 282.37 174.022 306.135 217 331.603C228.922 338.668 240.978 345.529 253 352.421C256.74 354.565 262.487 359.473 267 359.043C269.92 358.765 272.551 356.296 275 354.875L293 344.421C314.711 331.974 336.055 318.783 358 306.77C364.438 303.246 370.563 299.216 377 295.694C379.434 294.363 382.087 292.322 385 292.464C390.117 292.713 395.675 297.711 400 300.139C412.763 307.304 425.378 314.735 438 322.139C479.51 346.489 521.724 369.697 563 394.449C575.881 402.173 589.033 409.437 602 417.012C606.171 419.448 612.247 425.453 617 425.982C619.501 426.261 621.938 424.437 624 423.28L639 414.719C658.388 403.672 677.828 392.618 697 381.201C740.61 355.228 784.978 330.419 829 305.15C856.297 289.481 883.153 272.668 911 258C900.423 249.145 885.997 242.998 874 236.15C852.266 223.745 830.71 211.025 809 198.579C741.221 159.721 673.779 120.279 606 81.4213C580.297 66.6858 554.547 51.9933 529 36.9892C522.027 32.8939 515.024 28.8564 508 24.8495C505.064 23.1746 501.536 20.4117 498 20.4993C494.478 20.5865 490.942 23.3102 488 25L467 37.1497C440.967 52.0928 415.069 67.2706 389 82.1505C318.481 122.402 248.016 162.868 178 203.989C158.098 215.678 138.023 227.099 118 238.579C107.914 244.361 95.9014 249.548 87 257z"/>
<path style="fill:#0577bb; stroke:none;" d="M500 20L501 21L500 20z"/>
<path style="fill:#057abf; stroke:none;" d="M494 21L495 22L494 21z"/>
<path style="fill:#023350; stroke:none;" d="M502 21L503 22L502 21z"/>
<path style="fill:#046097; stroke:none;" d="M492 22L493 23L492 22z"/>
<path style="fill:#0577bb; stroke:none;" d="M503 22L504 23L503 22z"/>
<path style="fill:#03456c; stroke:none;" d="M490 23L491 24L490 23z"/>
<path style="fill:#045d93; stroke:none;" d="M505 23L506 24L505 23z"/>
<path style="fill:#022e48; stroke:none;" d="M488 24L489 25L488 24z"/>
<path style="fill:#03456c; stroke:none;" d="M507 24L508 25L507 24z"/>
<path style="fill:#0572b3; stroke:none;" d="M487 25L488 26L487 25z"/>
<path style="fill:#022b44; stroke:none;" d="M509 25L510 26L509 25z"/>
<path style="fill:#04588b; stroke:none;" d="M485 26L486 27L485 26z"/>
<path style="fill:#0572b3; stroke:none;" d="M510 26L511 27L510 26z"/>
<path style="fill:#033f64; stroke:none;" d="M483 27L484 28L483 27z"/>
<path style="fill:#045687; stroke:none;" d="M512 27L513 28L512 27z"/>
<path style="fill:#033f64; stroke:none;" d="M514 28L515 29L514 28z"/>
<path style="fill:#056aa7; stroke:none;" d="M480 29L481 30L480 29z"/>
<path style="fill:#03517f; stroke:none;" d="M478 30L479 31L478 30z"/>
<path style="fill:#0568a3; stroke:none;" d="M517 30L518 31L517 30z"/>
<path style="fill:#023a5c; stroke:none;" d="M476 31L477 32L476 31z"/>
<path style="fill:#03517f; stroke:none;" d="M519 31L520 32L519 31z"/>
<path style="fill:#023858; stroke:none;" d="M521 32L522 33L521 32z"/>
<path style="fill:#04659f; stroke:none;" d="M473 33L474 34L473 33z"/>
<path style="fill:#034c78; stroke:none;" d="M471 34L472 35L471 34z"/>
<path style="fill:#04639b; stroke:none;" d="M524 34L525 35L524 34z"/>
<path style="fill:#023350; stroke:none;" d="M469 35L470 36L469 35z"/>
<path style="fill:#034c78; stroke:none;" d="M526 35L527 36L526 35z"/>
<path style="fill:#0577bb; stroke:none;" d="M468 36L469 37L468 36z"/>
<path style="fill:#02304c; stroke:none;" d="M528 36L529 37L528 36z"/>
<path style="fill:#045d93; stroke:none;" d="M466 37L467 38L466 37z"/>
<path style="fill:#0574b7; stroke:none;" d="M529 37L530 38L529 37z"/>
<path style="fill:#03456c; stroke:none;" d="M464 38L465 39L464 38z"/>
<path style="fill:#045d93; stroke:none;" d="M531 38L532 39L531 38z"/>
<path style="fill:#022b44; stroke:none;" d="M462 39L463 40L462 39z"/>
<path style="fill:#034268; stroke:none;" d="M533 39L534 40L533 39z"/>
<path style="fill:#0572b3; stroke:none;" d="M461 40L462 41L461 40z"/>
<path style="fill:#022b44; stroke:none;" d="M535 40L536 41L535 40z"/>
<path style="fill:#045687; stroke:none;" d="M459 41L460 42L459 41z"/>
<path style="fill:#056dab; stroke:none;" d="M536 41L537 42L536 41z"/>
<path style="fill:#033f64; stroke:none;" d="M457 42L458 43L457 42z"/>
<path style="fill:#045687; stroke:none;" d="M538 42L539 43L538 42z"/>
<path style="fill:#033d60; stroke:none;" d="M540 43L541 44L540 43z"/>
<path style="fill:#0568a3; stroke:none;" d="M454 44L455 45L454 44z"/>
<path style="fill:#03517f; stroke:none;" d="M452 45L453 46L452 45z"/>
<path style="fill:#0568a3; stroke:none;" d="M543 45L544 46L543 45z"/>
<path style="fill:#023858; stroke:none;" d="M450 46L451 47L450 46z"/>
<path style="fill:#034f7c; stroke:none;" d="M545 46L546 47L545 46z"/>
<path style="fill:#023858; stroke:none;" d="M547 47L548 48L547 47z"/>
<path style="fill:#04639b; stroke:none;" d="M447 48L448 49L447 48z"/>
<path style="fill:#057abf; stroke:none;" d="M548 48L549 49L548 48z"/>
<path style="fill:#034c78; stroke:none;" d="M445 49L446 50L445 49z"/>
<path style="fill:#04639b; stroke:none;" d="M550 49L551 50L550 49z"/>
<path style="fill:#02304c; stroke:none;" d="M443 50L444 51L443 50z"/>
<path style="fill:#034a74; stroke:none;" d="M552 50L553 51L552 50z"/>
<path style="fill:#0574b7; stroke:none;" d="M442 51L443 52L442 51z"/>
<path style="fill:#022e48; stroke:none;" d="M554 51L555 52L554 51z"/>
<path style="fill:#045d93; stroke:none;" d="M440 52L441 53L440 52z"/>
<path style="fill:#0574b7; stroke:none;" d="M555 52L556 53L555 52z"/>
<path style="fill:#034268; stroke:none;" d="M438 53L439 54L438 53z"/>
<path style="fill:#04588b; stroke:none;" d="M557 53L558 54L557 53z"/>
<path style="fill:#022b44; stroke:none;" d="M436 54L437 55L436 54z"/>
<path style="fill:#034268; stroke:none;" d="M559 54L560 55L559 54z"/>
<path style="fill:#056dab; stroke:none;" d="M435 55L436 56L435 55z"/>
<path style="fill:#022840; stroke:none;" d="M561 55L562 56L561 55z"/>
<path style="fill:#045687; stroke:none;" d="M433 56L434 57L433 56z"/>
<path style="fill:#056dab; stroke:none;" d="M562 56L563 57L562 56z"/>
<path style="fill:#033d60; stroke:none;" d="M431 57L432 58L431 57z"/>
<path style="fill:#045383; stroke:none;" d="M564 57L565 58L564 57z"/>
<path style="fill:#023a5c; stroke:none;" d="M566 58L567 59L566 58z"/>
<path style="fill:#0568a3; stroke:none;" d="M428 59L429 60L428 59z"/>
<path style="fill:#034f7c; stroke:none;" d="M426 60L427 61L426 60z"/>
<path style="fill:#04659f; stroke:none;" d="M569 60L570 61L569 60z"/>
<path style="fill:#023858; stroke:none;" d="M424 61L425 62L424 61z"/>
<path style="fill:#034f7c; stroke:none;" d="M571 61L572 62L571 61z"/>
<path style="fill:#057abf; stroke:none;" d="M423 62L424 63L423 62z"/>
<path style="fill:#023554; stroke:none;" d="M573 62L574 63L573 62z"/>
<path style="fill:#04639b; stroke:none;" d="M421 63L422 64L421 63z"/>
<path style="fill:#057abf; stroke:none;" d="M574 63L575 64L574 63z"/>
<path style="fill:#034a74; stroke:none;" d="M419 64L420 65L419 64z"/>
<path style="fill:#046097; stroke:none;" d="M576 64L577 65L576 64z"/>
<path style="fill:#022e48; stroke:none;" d="M417 65L418 66L417 65z"/>
<path style="fill:#03456c; stroke:none;" d="M578 65L579 66L578 65z"/>
<path style="fill:#0574b7; stroke:none;" d="M416 66L417 67L416 66z"/>
<path style="fill:#022e48; stroke:none;" d="M580 66L581 67L580 66z"/>
<path style="fill:#08ff7c; stroke:none;" d="M1094 262L1094 165C1086.2 167.294 1079.03 172.55 1072 176.579C1059.98 183.471 1047.92 190.332 1036 197.397C1031.1 200.302 1019.03 204.356 1017.32 210.21C1015.54 216.286 1017 224.686 1017 231L1017 276C1017 282.171 1019.31 294.275 1015.97 299.621C1012.51 305.158 1002.47 308.368 997 311.603C982.735 320.044 968.381 328.334 954 336.579C948.188 339.911 938.88 343.307 934.603 348.529C932.669 350.892 933.006 354.14 933 357L933 375L933 445C944.936 441.555 956.385 432.752 967 426.4C983.833 416.326 1001.27 407.243 1018 397L1018 475L1018 496C1018 499.014 1018.61 502.972 1016.97 505.671C1013.79 510.924 1004.15 514.131 999 517.201C983.78 526.265 968.364 535.031 953 543.85C947.75 546.864 937.5 550.656 934.028 555.637C932.612 557.669 933.005 560.664 933 563L933 579L933 641C962.077 627.408 987.517 605.704 1017 593L1017 684C1038.9 674.833 1059.37 660.019 1080 648.281C1085.36 645.234 1090.68 642.121 1096 639C1098.24 637.684 1100.89 636.469 1101.68 633.787C1103.31 628.284 1102 620.717 1102 615L1102 574C1102 568.323 1100.07 558.229 1103.03 553.213C1104.67 550.433 1108.31 548.962 1111 547.421C1116.68 544.163 1122.39 540.967 1128 537.6C1150.43 524.148 1174.16 512.403 1196 498L1196 581C1216.62 571.371 1236.41 558.212 1256 546.603C1260.96 543.665 1266.01 540.893 1271 538C1273.31 536.658 1276.27 535.389 1277.4 532.787C1279.26 528.489 1278 521.614 1278 517L1278 483C1278 478.478 1276.65 471.245 1279.03 467.213C1281.83 462.461 1290.35 459.506 1295 456.85C1305.38 450.925 1315.64 444.8 1326 438.85C1330.71 436.146 1337.8 433.493 1341.4 429.366C1345.41 424.758 1343 411.821 1343 406L1343 342C1331.46 346.202 1320.55 354.142 1310 360.397C1296.07 368.65 1281.5 376.066 1268 385L1268 309L1268 288C1268 284.639 1267.31 280.281 1268.6 277.105C1271.03 271.166 1282.69 267.196 1288 264.15C1300.37 257.047 1312.72 249.878 1325 242.603C1329.99 239.647 1337.68 237.007 1341.4 232.471C1343.51 229.889 1343 226.114 1343 223L1343 204L1343 126C1330.14 131.542 1318.07 139.902 1306 146.989C1292.38 154.99 1278.17 162.282 1265 171L1265 66C1257.3 68.8201 1250.11 73.9125 1243 78C1230.99 84.9028 1218.9 91.7111 1207 98.7994C1201.82 101.883 1190.03 105.809 1188.32 112.093C1186.46 118.884 1188 127.975 1188 135L1188 182L1188 199C1187.99 201.459 1188.34 204.435 1186.97 206.621C1185.3 209.295 1181.62 210.843 1179 212.397C1172.7 216.132 1166.35 219.78 1160 223.421C1138.01 236.029 1115.13 248.016 1094 262z"/>
<path style="fill:#04588b; stroke:none;" d="M414 67L415 68L414 67z"/>
<path style="fill:#0572b3; stroke:none;" d="M581 67L582 68L581 67z"/>
<path style="fill:#034268; stroke:none;" d="M412 68L413 69L412 68z"/>
<path style="fill:#04588b; stroke:none;" d="M583 68L584 69L583 68z"/>
<path style="fill:#022840; stroke:none;" d="M410 69L411 70L410 69z"/>
<path style="fill:#033f64; stroke:none;" d="M585 69L586 70L585 69z"/>
<path style="fill:#056dab; stroke:none;" d="M409 70L410 71L409 70z"/>
<path style="fill:#045383; stroke:none;" d="M407 71L408 72L407 71z"/>
<path style="fill:#056aa7; stroke:none;" d="M588 71L589 72L588 71z"/>
<path style="fill:#023a5c; stroke:none;" d="M405 72L406 73L405 72z"/>
<path style="fill:#03517f; stroke:none;" d="M590 72L591 73L590 72z"/>
<path style="fill:#023a5c; stroke:none;" d="M592 73L593 74L592 73z"/>
<path style="fill:#04659f; stroke:none;" d="M402 74L403 75L402 74z"/>
<path style="fill:#034f7c; stroke:none;" d="M400 75L401 76L400 75z"/>
<path style="fill:#04659f; stroke:none;" d="M595 75L596 76L595 75z"/>
<path style="fill:#023554; stroke:none;" d="M398 76L399 77L398 76z"/>
<path style="fill:#034c78; stroke:none;" d="M597 76L598 77L597 76z"/>
<path style="fill:#057abf; stroke:none;" d="M397 77L398 78L397 77z"/>
<path style="fill:#023350; stroke:none;" d="M599 77L600 78L599 77z"/>
<path style="fill:#046097; stroke:none;" d="M395 78L396 79L395 78z"/>
<path style="fill:#0577bb; stroke:none;" d="M600 78L601 79L600 78z"/>
<path style="fill:#03456c; stroke:none;" d="M393 79L394 80L393 79z"/>
<path style="fill:#045d93; stroke:none;" d="M602 79L603 80L602 79z"/>
<path style="fill:#022e48; stroke:none;" d="M391 80L392 81L391 80z"/>
<path style="fill:#03456c; stroke:none;" d="M604 80L605 81L604 80z"/>
<path style="fill:#0572b3; stroke:none;" d="M390 81L391 82L390 81z"/>
<path style="fill:#022b44; stroke:none;" d="M606 81L607 82L606 81z"/>
<path style="fill:#04588b; stroke:none;" d="M388 82L389 83L388 82z"/>
<path style="fill:#0572b3; stroke:none;" d="M607 82L608 83L607 82z"/>
<path style="fill:#033f64; stroke:none;" d="M386 83L387 84L386 83z"/>
<path style="fill:#045687; stroke:none;" d="M609 83L610 84L609 83z"/>
<path style="fill:#033d60; stroke:none;" d="M611 84L612 85L611 84z"/>
<path style="fill:#056aa7; stroke:none;" d="M383 85L384 86L383 85z"/>
<path style="fill:#03517f; stroke:none;" d="M381 86L382 87L381 86z"/>
<path style="fill:#0568a3; stroke:none;" d="M614 86L615 87L614 86z"/>
<path style="fill:#023a5c; stroke:none;" d="M379 87L380 88L379 87z"/>
<path style="fill:#03517f; stroke:none;" d="M616 87L617 88L616 87z"/>
<path style="fill:#023858; stroke:none;" d="M618 88L619 89L618 88z"/>
<path style="fill:#04659f; stroke:none;" d="M376 89L377 90L376 89z"/>
<path style="fill:#034c78; stroke:none;" d="M374 90L375 91L374 90z"/>
<path style="fill:#04639b; stroke:none;" d="M621 90L622 91L621 90z"/>
<path style="fill:#02304c; stroke:none;" d="M372 91L373 92L372 91z"/>
<path style="fill:#034a74; stroke:none;" d="M623 91L624 92L623 91z"/>
<path style="fill:#0577bb; stroke:none;" d="M371 92L372 93L371 92z"/>
<path style="fill:#02304c; stroke:none;" d="M625 92L626 93L625 92z"/>
<path style="fill:#045d93; stroke:none;" d="M369 93L370 94L369 93z"/>
<path style="fill:#0574b7; stroke:none;" d="M626 93L627 94L626 93z"/>
<path style="fill:#03456c; stroke:none;" d="M367 94L368 95L367 94z"/>
<path style="fill:#045d93; stroke:none;" d="M628 94L629 95L628 94z"/>
<path style="fill:#022b44; stroke:none;" d="M365 95L366 96L365 95z"/>
<path style="fill:#034268; stroke:none;" d="M630 95L631 96L630 95z"/>
<path style="fill:#0572b3; stroke:none;" d="M364 96L365 97L364 96z"/>
<path style="fill:#022b44; stroke:none;" d="M632 96L633 97L632 96z"/>
<path style="fill:#045687; stroke:none;" d="M362 97L363 98L362 97z"/>
<path style="fill:#056dab; stroke:none;" d="M633 97L634 98L633 97z"/>
<path style="fill:#033d60; stroke:none;" d="M360 98L361 99L360 98z"/>
<path style="fill:#045383; stroke:none;" d="M635 98L636 99L635 98z"/>
<path style="fill:#033d60; stroke:none;" d="M637 99L638 100L637 99z"/>
<path style="fill:#0568a3; stroke:none;" d="M357 100L358 101L357 100z"/>
<path style="fill:#03517f; stroke:none;" d="M355 101L356 102L355 101z"/>
<path style="fill:#0568a3; stroke:none;" d="M640 101L641 102L640 101z"/>
<path style="fill:#023858; stroke:none;" d="M353 102L354 103L353 102z"/>
<path style="fill:#034f7c; stroke:none;" d="M642 102L643 103L642 102z"/>
<path style="fill:#023858; stroke:none;" d="M644 103L645 104L644 103z"/>
<path style="fill:#04639b; stroke:none;" d="M350 104L351 105L350 104z"/>
<path style="fill:#057abf; stroke:none;" d="M645 104L646 105L645 104z"/>
<path style="fill:#034a74; stroke:none;" d="M348 105L349 106L348 105z"/>
<path style="fill:#046097; stroke:none;" d="M647 105L648 106L647 105z"/>
<path style="fill:#02304c; stroke:none;" d="M346 106L347 107L346 106z"/>
<path style="fill:#034a74; stroke:none;" d="M649 106L650 107L649 106z"/>
<path style="fill:#0574b7; stroke:none;" d="M345 107L346 108L345 107z"/>
<path style="fill:#022e48; stroke:none;" d="M651 107L652 108L651 107z"/>
<path style="fill:#045d93; stroke:none;" d="M343 108L344 109L343 108z"/>
<path style="fill:#0574b7; stroke:none;" d="M652 108L653 109L652 108z"/>
<path style="fill:#034268; stroke:none;" d="M341 109L342 110L341 109z"/>
<path style="fill:#04588b; stroke:none;" d="M654 109L655 110L654 109z"/>
<path style="fill:#022b44; stroke:none;" d="M339 110L340 111L339 110z"/>
<path style="fill:#034268; stroke:none;" d="M656 110L657 111L656 110z"/>
<path style="fill:#056dab; stroke:none;" d="M338 111L339 112L338 111z"/>
<path style="fill:#022840; stroke:none;" d="M658 111L659 112L658 111z"/>
<path style="fill:#045383; stroke:none;" d="M336 112L337 113L336 112z"/>
<path style="fill:#056aa7; stroke:none;" d="M659 112L660 113L659 112z"/>
<path style="fill:#033d60; stroke:none;" d="M334 113L335 114L334 113z"/>
<path style="fill:#045383; stroke:none;" d="M661 113L662 114L661 113z"/>
<path style="fill:#023a5c; stroke:none;" d="M663 114L664 115L663 114z"/>
<path style="fill:#0568a3; stroke:none;" d="M331 115L332 116L331 115z"/>
<path style="fill:#034f7c; stroke:none;" d="M329 116L330 117L329 116z"/>
<path style="fill:#04659f; stroke:none;" d="M666 116L667 117L666 116z"/>
<path style="fill:#023858; stroke:none;" d="M327 117L328 118L327 117z"/>
<path style="fill:#034f7c; stroke:none;" d="M668 117L669 118L668 117z"/>
<path style="fill:#057abf; stroke:none;" d="M326 118L327 119L326 118z"/>
<path style="fill:#023554; stroke:none;" d="M670 118L671 119L670 118z"/>
<path style="fill:#046097; stroke:none;" d="M324 119L325 120L324 119z"/>
<path style="fill:#0577bb; stroke:none;" d="M671 119L672 120L671 119z"/>
<path style="fill:#034a74; stroke:none;" d="M322 120L323 121L322 120z"/>
<path style="fill:#046097; stroke:none;" d="M673 120L674 121L673 120z"/>
<path style="fill:#022e48; stroke:none;" d="M320 121L321 122L320 121z"/>
<path style="fill:#03456c; stroke:none;" d="M675 121L676 122L675 121z"/>
<path style="fill:#0574b7; stroke:none;" d="M319 122L320 123L319 122z"/>
<path style="fill:#022e48; stroke:none;" d="M677 122L678 123L677 122z"/>
<path style="fill:#04588b; stroke:none;" d="M317 123L318 124L317 123z"/>
<path style="fill:#0572b3; stroke:none;" d="M678 123L679 124L678 123z"/>
<path style="fill:#034268; stroke:none;" d="M315 124L316 125L315 124z"/>
<path style="fill:#04588b; stroke:none;" d="M680 124L681 125L680 124z"/>
<path style="fill:#022840; stroke:none;" d="M313 125L314 126L313 125z"/>
<path style="fill:#033f64; stroke:none;" d="M682 125L683 126L682 125z"/>
<path style="fill:#056aa7; stroke:none;" d="M312 126L313 127L312 126z"/>
<path style="fill:#045383; stroke:none;" d="M310 127L311 128L310 127z"/>
<path style="fill:#056aa7; stroke:none;" d="M685 127L686 128L685 127z"/>
<path style="fill:#023a5c; stroke:none;" d="M308 128L309 129L308 128z"/>
<path style="fill:#03517f; stroke:none;" d="M687 128L688 129L687 128z"/>
<path style="fill:#023a5c; stroke:none;" d="M689 129L690 130L689 129z"/>
<path style="fill:#04659f; stroke:none;" d="M305 130L306 131L305 130z"/>
<path style="fill:#034f7c; stroke:none;" d="M303 131L304 132L303 131z"/>
<path style="fill:#04659f; stroke:none;" d="M692 131L693 132L692 131z"/>
<path style="fill:#023554; stroke:none;" d="M301 132L302 133L301 132z"/>
<path style="fill:#034c78; stroke:none;" d="M694 132L695 133L694 132z"/>
<path style="fill:#0577bb; stroke:none;" d="M300 133L301 134L300 133z"/>
<path style="fill:#02304c; stroke:none;" d="M696 133L697 134L696 133z"/>
<path style="fill:#046097; stroke:none;" d="M298 134L299 135L298 134z"/>
<path style="fill:#0577bb; stroke:none;" d="M697 134L698 135L697 134z"/>
<path style="fill:#03456c; stroke:none;" d="M296 135L297 136L296 135z"/>
<path style="fill:#045d93; stroke:none;" d="M699 135L700 136L699 135z"/>
<path style="fill:#022e48; stroke:none;" d="M294 136L295 137L294 136z"/>
<path style="fill:#03456c; stroke:none;" d="M701 136L702 137L701 136z"/>
<path style="fill:#0572b3; stroke:none;" d="M293 137L294 138L293 137z"/>
<path style="fill:#022b44; stroke:none;" d="M703 137L704 138L703 137z"/>
<path style="fill:#04588b; stroke:none;" d="M291 138L292 139L291 138z"/>
<path style="fill:#0572b3; stroke:none;" d="M704 138L705 139L704 138z"/>
<path style="fill:#033f64; stroke:none;" d="M289 139L290 140L289 139z"/>
<path style="fill:#045687; stroke:none;" d="M706 139L707 140L706 139z"/>
<path style="fill:#033d60; stroke:none;" d="M708 140L709 141L708 140z"/>
<path style="fill:#056aa7; stroke:none;" d="M286 141L287 142L286 141z"/>
<path style="fill:#03517f; stroke:none;" d="M284 142L285 143L284 142z"/>
<path style="fill:#0568a3; stroke:none;" d="M711 142L712 143L711 142z"/>
<path style="fill:#023a5c; stroke:none;" d="M282 143L283 144L282 143z"/>
<path style="fill:#03517f; stroke:none;" d="M713 143L714 144L713 143z"/>
<path style="fill:#023858; stroke:none;" d="M715 144L716 145L715 144z"/>
<path style="fill:#04659f; stroke:none;" d="M279 145L280 146L279 145z"/>
<path style="fill:#034c78; stroke:none;" d="M277 146L278 147L277 146z"/>
<path style="fill:#04639b; stroke:none;" d="M718 146L719 147L718 146z"/>
<path style="fill:#02304c; stroke:none;" d="M275 147L276 148L275 147z"/>
<path style="fill:#034a74; stroke:none;" d="M720 147L721 148L720 147z"/>
<path style="fill:#0577bb; stroke:none;" d="M274 148L275 149L274 148z"/>
<path style="fill:#02304c; stroke:none;" d="M722 148L723 149L722 148z"/>
<path style="fill:#045d93; stroke:none;" d="M272 149L273 150L272 149z"/>
<path style="fill:#0574b7; stroke:none;" d="M723 149L724 150L723 149z"/>
<path style="fill:#03456c; stroke:none;" d="M270 150L271 151L270 150z"/>
<path style="fill:#045d93; stroke:none;" d="M725 150L726 151L725 150z"/>
<path style="fill:#022b44; stroke:none;" d="M268 151L269 152L268 151z"/>
<path style="fill:#000000; stroke:none;" d="M440 223C446.849 232.641 459.93 237.818 470 243.579C490.387 255.242 510.629 267.156 531 278.85L552 291.001C554.934 292.676 558.438 295.411 562 295.088C565.841 294.74 569.784 291.718 573 289.799C580.302 285.444 587.586 281.023 595 276.861C612.12 267.25 628.911 257.08 646 247.424C658.328 240.459 671.822 233.961 682 224C675.799 215.276 664.91 211.363 656 205.938C634.283 192.717 611.995 180.341 590 167.576L570 156.011C567.124 154.323 563.52 151.549 560 151.924C556.536 152.293 552.991 155.133 550 156.77C541.531 161.406 533.308 166.625 525 171.548C507.464 181.94 489.707 192.043 472 202.15C461.011 208.423 449.09 214.104 440 223z"/>
<path style="fill:#034268; stroke:none;" d="M727 151L728 152L727 151z"/>
<path style="fill:#0572b3; stroke:none;" d="M267 152L268 153L267 152z"/>
<path style="fill:#022b44; stroke:none;" d="M729 152L730 153L729 152z"/>
<path style="fill:#045687; stroke:none;" d="M265 153L266 154L265 153z"/>
<path style="fill:#056dab; stroke:none;" d="M730 153L731 154L730 153z"/>
<path style="fill:#033d60; stroke:none;" d="M263 154L264 155L263 154z"/>
<path style="fill:#045383; stroke:none;" d="M732 154L733 155L732 154z"/>
<path style="fill:#033d60; stroke:none;" d="M734 155L735 156L734 155z"/>
<path style="fill:#0568a3; stroke:none;" d="M260 156L261 157L260 156z"/>
<path style="fill:#03517f; stroke:none;" d="M258 157L259 158L258 157z"/>
<path style="fill:#ffffff; stroke:none;" d="M446 223C454.048 230.28 465.587 235.025 475 240.421C494.043 251.339 513.012 262.405 532 273.424C538.666 277.293 545.308 281.179 552 285.001C554.934 286.676 558.438 289.411 562 289.088C565.841 288.74 569.784 285.718 573 283.799C580.302 279.444 587.586 275.023 595 270.861C622.201 255.59 648.73 239.122 676 224C667.047 216.505 655.127 211.378 645 205.573C626.932 195.214 609.064 184.52 591 174.15C583.988 170.124 576.973 166.103 570 162.011C567.124 160.323 563.52 157.549 560 157.924C556.536 158.293 552.991 161.133 550 162.77C541.531 167.406 533.308 172.625 525 177.548C498.967 192.975 472.779 208.91 446 223z"/>
<path style="fill:#0568a3; stroke:none;" d="M737 157L738 158L737 157z"/>
<path style="fill:#023858; stroke:none;" d="M256 158L257 159L256 158z"/>
<path style="fill:#034f7c; stroke:none;" d="M739 158L740 159L739 158z"/>
<path style="fill:#023858; stroke:none;" d="M741 159L742 160L741 159z"/>
<path style="fill:#04639b; stroke:none;" d="M253 160L254 161L253 160z"/>
<path style="fill:#057abf; stroke:none;" d="M742 160L743 161L742 160z"/>
<path style="fill:#034a74; stroke:none;" d="M251 161L252 162L251 161z"/>
<path style="fill:#046097; stroke:none;" d="M744 161L745 162L744 161z"/>
<path style="fill:#02304c; stroke:none;" d="M249 162L250 163L249 162z"/>
<path style="fill:#034a74; stroke:none;" d="M746 162L747 163L746 162z"/>
<path style="fill:#0574b7; stroke:none;" d="M248 163L249 164L248 163z"/>
<path style="fill:#022e48; stroke:none;" d="M748 163L749 164L748 163z"/>
<path style="fill:#045d93; stroke:none;" d="M246 164L247 165L246 164z"/>
<path style="fill:#0574b7; stroke:none;" d="M749 164L750 165L749 164z"/>
<path style="fill:#034268; stroke:none;" d="M244 165L245 166L244 165z"/>
<path style="fill:#04588b; stroke:none;" d="M751 165L752 166L751 165z"/>
<path style="fill:#022b44; stroke:none;" d="M242 166L243 167L242 166z"/>
<path style="fill:#034268; stroke:none;" d="M753 166L754 167L753 166z"/>
<path style="fill:#056dab; stroke:none;" d="M241 167L242 168L241 167z"/>
<path style="fill:#022840; stroke:none;" d="M755 167L756 168L755 167z"/>
<path style="fill:#045383; stroke:none;" d="M239 168L240 169L239 168z"/>
<path style="fill:#056aa7; stroke:none;" d="M756 168L757 169L756 168z"/>
<path style="fill:#033d60; stroke:none;" d="M237 169L238 170L237 169z"/>
<path style="fill:#045383; stroke:none;" d="M758 169L759 170L758 169z"/>
<path style="fill:#023a5c; stroke:none;" d="M760 170L761 171L760 170z"/>
<path style="fill:#0568a3; stroke:none;" d="M234 171L235 172L234 171z"/>
<path style="fill:#034f7c; stroke:none;" d="M232 172L233 173L232 172z"/>
<path style="fill:#04659f; stroke:none;" d="M763 172L764 173L763 172z"/>
<path style="fill:#023858; stroke:none;" d="M230 173L231 174L230 173z"/>
<path style="fill:#034f7c; stroke:none;" d="M765 173L766 174L765 173z"/>
<path style="fill:#057abf; stroke:none;" d="M229 174L230 175L229 174z"/>
<path style="fill:#023554; stroke:none;" d="M767 174L768 175L767 174z"/>
<path style="fill:#046097; stroke:none;" d="M227 175L228 176L227 175z"/>
<path style="fill:#0577bb; stroke:none;" d="M768 175L769 176L768 175z"/>
<path style="fill:#034a74; stroke:none;" d="M225 176L226 177L225 176z"/>
<path style="fill:#046097; stroke:none;" d="M770 176L771 177L770 176z"/>
<path style="fill:#022e48; stroke:none;" d="M223 177L224 178L223 177z"/>
<path style="fill:#03456c; stroke:none;" d="M772 177L773 178L772 177z"/>
<path style="fill:#0574b7; stroke:none;" d="M222 178L223 179L222 178z"/>
<path style="fill:#022e48; stroke:none;" d="M774 178L775 179L774 178z"/>
<path style="fill:#04588b; stroke:none;" d="M220 179L221 180L220 179z"/>
<path style="fill:#0572b3; stroke:none;" d="M775 179L776 180L775 179z"/>
<path style="fill:#034268; stroke:none;" d="M218 180L219 181L218 180z"/>
<path style="fill:#04588b; stroke:none;" d="M777 180L778 181L777 180z"/>
<path style="fill:#022840; stroke:none;" d="M216 181L217 182L216 181z"/>
<path style="fill:#033f64; stroke:none;" d="M779 181L780 182L779 181z"/>
<path style="fill:#056aa7; stroke:none;" d="M215 182L216 183L215 182z"/>
<path style="fill:#045383; stroke:none;" d="M213 183L214 184L213 183z"/>
<path style="fill:#056aa7; stroke:none;" d="M782 183L783 184L782 183z"/>
<path style="fill:#023a5c; stroke:none;" d="M211 184L212 185L211 184z"/>
<path style="fill:#03517f; stroke:none;" d="M784 184L785 185L784 184z"/>
<path style="fill:#023a5c; stroke:none;" d="M786 185L787 186L786 185z"/>
<path style="fill:#04659f; stroke:none;" d="M208 186L209 187L208 186z"/>
<path style="fill:#034f7c; stroke:none;" d="M206 187L207 188L206 187z"/>
<path style="fill:#04659f; stroke:none;" d="M789 187L790 188L789 187z"/>
<path style="fill:#023554; stroke:none;" d="M204 188L205 189L204 188z"/>
<path style="fill:#034c78; stroke:none;" d="M791 188L792 189L791 188z"/>
<path style="fill:#0577bb; stroke:none;" d="M203 189L204 190L203 189z"/>
<path style="fill:#02304c; stroke:none;" d="M793 189L794 190L793 189z"/>
<path style="fill:#046097; stroke:none;" d="M201 190L202 191L201 190z"/>
<path style="fill:#0577bb; stroke:none;" d="M794 190L795 191L794 190z"/>
<path style="fill:#03456c; stroke:none;" d="M199 191L200 192L199 191z"/>
<path style="fill:#045d93; stroke:none;" d="M796 191L797 192L796 191z"/>
<path style="fill:#022e48; stroke:none;" d="M197 192L198 193L197 192z"/>
<path style="fill:#03456c; stroke:none;" d="M798 192L799 193L798 192z"/>
<path style="fill:#0572b3; stroke:none;" d="M196 193L197 194L196 193z"/>
<path style="fill:#022b44; stroke:none;" d="M800 193L801 194L800 193z"/>
<path style="fill:#04588b; stroke:none;" d="M194 194L195 195L194 194z"/>
<path style="fill:#0572b3; stroke:none;" d="M801 194L802 195L801 194z"/>
<path style="fill:#033f64; stroke:none;" d="M192 195L193 196L192 195z"/>
<path style="fill:#045687; stroke:none;" d="M803 195L804 196L803 195z"/>
<path style="fill:#033d60; stroke:none;" d="M805 196L806 197L805 196z"/>
<path style="fill:#056aa7; stroke:none;" d="M189 197L190 198L189 197z"/>
<path style="fill:#03517f; stroke:none;" d="M187 198L188 199L187 198z"/>
<path style="fill:#0568a3; stroke:none;" d="M808 198L809 199L808 198z"/>
<path style="fill:#023a5c; stroke:none;" d="M185 199L186 200L185 199z"/>
<path style="fill:#03517f; stroke:none;" d="M810 199L811 200L810 199z"/>
<path style="fill:#023858; stroke:none;" d="M812 200L813 201L812 200z"/>
<path style="fill:#04639b; stroke:none;" d="M182 201L183 202L182 201z"/>
<path style="fill:#034c78; stroke:none;" d="M180 202L181 203L180 202z"/>
<path style="fill:#04639b; stroke:none;" d="M815 202L816 203L815 202z"/>
<path style="fill:#02304c; stroke:none;" d="M178 203L179 204L178 203z"/>
<path style="fill:#034a74; stroke:none;" d="M817 203L818 204L817 203z"/>
<path style="fill:#0577bb; stroke:none;" d="M177 204L178 205L177 204z"/>
<path style="fill:#02304c; stroke:none;" d="M819 204L820 205L819 204z"/>
<path style="fill:#045d93; stroke:none;" d="M175 205L176 206L175 205z"/>
<path style="fill:#0574b7; stroke:none;" d="M820 205L821 206L820 205z"/>
<path style="fill:#03456c; stroke:none;" d="M173 206L174 207L173 206z"/>
<path style="fill:#045d93; stroke:none;" d="M822 206L823 207L822 206z"/>
<path style="fill:#022b44; stroke:none;" d="M171 207L172 208L171 207z"/>
<path style="fill:#034268; stroke:none;" d="M824 207L825 208L824 207z"/>
<path style="fill:#056faf; stroke:none;" d="M170 208L171 209L170 208z"/>
<path style="fill:#022840; stroke:none;" d="M826 208L827 209L826 208z"/>
<path style="fill:#045687; stroke:none;" d="M168 209L169 210L168 209z"/>
<path style="fill:#056dab; stroke:none;" d="M827 209L828 210L827 209z"/>
<path style="fill:#033d60; stroke:none;" d="M166 210L167 211L166 210z"/>
<path style="fill:#045383; stroke:none;" d="M829 210L830 211L829 210z"/>
<path style="fill:#033d60; stroke:none;" d="M831 211L832 212L831 211z"/>
<path style="fill:#0568a3; stroke:none;" d="M163 212L164 213L163 212z"/>
<path style="fill:#03517f; stroke:none;" d="M161 213L162 214L161 213z"/>
<path style="fill:#0568a3; stroke:none;" d="M834 213L835 214L834 213z"/>
<path style="fill:#023858; stroke:none;" d="M159 214L160 215L159 214z"/>
<path style="fill:#034f7c; stroke:none;" d="M836 214L837 215L836 214z"/>
<path style="fill:#023554; stroke:none;" d="M838 215L839 216L838 215z"/>
<path style="fill:#04639b; stroke:none;" d="M156 216L157 217L156 216z"/>
<path style="fill:#057abf; stroke:none;" d="M839 216L840 217L839 216z"/>
<path style="fill:#034a74; stroke:none;" d="M154 217L155 218L154 217z"/>
<path style="fill:#046097; stroke:none;" d="M841 217L842 218L841 217z"/>
<path style="fill:#02304c; stroke:none;" d="M152 218L153 219L152 218z"/>
<path style="fill:#034a74; stroke:none;" d="M843 218L844 219L843 218z"/>
<path style="fill:#0574b7; stroke:none;" d="M151 219L152 220L151 219z"/>
<path style="fill:#022e48; stroke:none;" d="M845 219L846 220L845 219z"/>
<path style="fill:#045d93; stroke:none;" d="M149 220L150 221L149 220z"/>
<path style="fill:#0574b7; stroke:none;" d="M846 220L847 221L846 220z"/>
<path style="fill:#034268; stroke:none;" d="M147 221L148 222L147 221z"/>
<path style="fill:#04588b; stroke:none;" d="M848 221L849 222L848 221z"/>
<path style="fill:#022840; stroke:none;" d="M145 222L146 223L145 222z"/>
<path style="fill:#033f64; stroke:none;" d="M850 222L851 223L850 222z"/>
<path style="fill:#056dab; stroke:none;" d="M144 223L145 224L144 223z"/>
<path style="fill:#022840; stroke:none;" d="M852 223L853 224L852 223z"/>
<path style="fill:#045383; stroke:none;" d="M142 224L143 225L142 224z"/>
<path style="fill:#056aa7; stroke:none;" d="M853 224L854 225L853 224z"/>
<path style="fill:#033d60; stroke:none;" d="M140 225L141 226L140 225z"/>
<path style="fill:#045383; stroke:none;" d="M855 225L856 226L855 225z"/>
<path style="fill:#023a5c; stroke:none;" d="M857 226L858 227L857 226z"/>
<path style="fill:#0568a3; stroke:none;" d="M137 227L138 228L137 227z"/>
<path style="fill:#034f7c; stroke:none;" d="M135 228L136 229L135 228z"/>
<path style="fill:#04659f; stroke:none;" d="M860 228L861 229L860 228z"/>
<path style="fill:#023554; stroke:none;" d="M133 229L134 230L133 229z"/>
<path style="fill:#034c78; stroke:none;" d="M862 229L863 230L862 229z"/>
<path style="fill:#057abf; stroke:none;" d="M132 230L133 231L132 230z"/>
<path style="fill:#023554; stroke:none;" d="M864 230L865 231L864 230z"/>
<path style="fill:#046097; stroke:none;" d="M130 231L131 232L130 231z"/>
<path style="fill:#0577bb; stroke:none;" d="M865 231L866 232L865 231z"/>
<path style="fill:#034a74; stroke:none;" d="M128 232L129 233L128 232z"/>
<path style="fill:#046097; stroke:none;" d="M867 232L868 233L867 232z"/>
<path style="fill:#022e48; stroke:none;" d="M126 233L127 234L126 233z"/>
<path style="fill:#03456c; stroke:none;" d="M869 233L870 234L869 233z"/>
<path style="fill:#0574b7; stroke:none;" d="M125 234L126 235L125 234z"/>
<path style="fill:#022e48; stroke:none;" d="M871 234L872 235L871 234z"/>
<path style="fill:#04588b; stroke:none;" d="M123 235L124 236L123 235z"/>
<path style="fill:#0572b3; stroke:none;" d="M872 235L873 236L872 235z"/>
<path style="fill:#033f64; stroke:none;" d="M121 236L122 237L121 236z"/>
<path style="fill:#045687; stroke:none;" d="M874 236L875 237L874 236z"/>
<path style="fill:#022840; stroke:none;" d="M119 237L120 238L119 237z"/>
<path style="fill:#033f64; stroke:none;" d="M876 237L877 238L876 237z"/>
<path style="fill:#056aa7; stroke:none;" d="M118 238L119 239L118 238z"/>
<path style="fill:#045383; stroke:none;" d="M116 239L117 240L116 239z"/>
<path style="fill:#056aa7; stroke:none;" d="M879 239L880 240L879 239z"/>
<path style="fill:#023a5c; stroke:none;" d="M114 240L115 241L114 240z"/>
<path style="fill:#03517f; stroke:none;" d="M881 240L882 241L881 240z"/>
<path style="fill:#023a5c; stroke:none;" d="M883 241L884 242L883 241z"/>
<path style="fill:#04659f; stroke:none;" d="M111 242L112 243L111 242z"/>
<path style="fill:#034c78; stroke:none;" d="M109 243L110 244L109 243z"/>
<path style="fill:#04639b; stroke:none;" d="M886 243L887 244L886 243z"/>
<path style="fill:#023554; stroke:none;" d="M107 244L108 245L107 244z"/>
<path style="fill:#034c78; stroke:none;" d="M888 244L889 245L888 244z"/>
<path style="fill:#0577bb; stroke:none;" d="M106 245L107 246L106 245z"/>
<path style="fill:#02304c; stroke:none;" d="M890 245L891 246L890 245z"/>
<path style="fill:#046097; stroke:none;" d="M104 246L105 247L104 246z"/>
<path style="fill:#0577bb; stroke:none;" d="M891 246L892 247L891 246z"/>
<path style="fill:#03456c; stroke:none;" d="M102 247L103 248L102 247z"/>
<path style="fill:#045d93; stroke:none;" d="M893 247L894 248L893 247z"/>
<path style="fill:#022e48; stroke:none;" d="M100 248L101 249L100 248z"/>
<path style="fill:#03456c; stroke:none;" d="M895 248L896 249L895 248z"/>
<path style="fill:#0572b3; stroke:none;" d="M99 249L100 250L99 249z"/>
<path style="fill:#022b44; stroke:none;" d="M897 249L898 250L897 249z"/>
<path style="fill:#045687; stroke:none;" d="M97 250L98 251L97 250z"/>
<path style="fill:#056faf; stroke:none;" d="M898 250L899 251L898 250z"/>
<path style="fill:#033f64; stroke:none;" d="M95 251L96 252L95 251z"/>
<path style="fill:#045687; stroke:none;" d="M900 251L901 252L900 251z"/>
<path style="fill:#033d60; stroke:none;" d="M902 252L903 253L902 252z"/>
<path style="fill:#056aa7; stroke:none;" d="M92 253L93 254L92 253z"/>
<path style="fill:#03517f; stroke:none;" d="M90 254L91 255L90 254z"/>
<path style="fill:#0568a3; stroke:none;" d="M905 254L906 255L905 254z"/>
<path style="fill:#023a5c; stroke:none;" d="M88 255L89 256L88 255z"/>
<path style="fill:#03517f; stroke:none;" d="M907 255L908 256L907 255z"/>
<path style="fill:#023858; stroke:none;" d="M909 256L910 257L909 256z"/>
<path style="fill:#bf0b5c; stroke:none;" d="M83 261L83 738C84.6611 734.041 84 729.26 84 725L84 702L84 619L84 366L84 293L84 273C84 269.017 84.552 264.699 83 261z"/>
<path style="fill:#ff107c; stroke:none;" d="M84 262L84 611L84 704L84 728C84 731.157 83.2198 735.683 85.0278 738.471C87.0657 741.612 91.8831 743.344 95 745.201C102.599 749.726 110.351 753.985 118 758.424C137.32 769.637 156.632 780.869 176 792C185.846 797.659 196.165 805.571 207 809L207 739C207 731.213 204.497 718.963 210.969 713.253C214.521 710.12 217.6 712.773 221.001 714.799C227.95 718.941 235.101 722.717 242 726.939C263.625 740.174 285.862 752.781 308 765.14C316.709 770.001 331.287 775.644 335.972 785C338.857 790.759 337 800.678 337 807L337 860L337 877C337.006 879.796 336.628 883.098 338.603 885.366C341.973 889.233 348.586 891.631 353 894.15C363.686 900.251 374.414 906.33 385 912.603C407.843 926.14 431.035 939.096 454 952.424C468.152 960.638 482.178 970.08 497 977L497 639L497 541L497 513C497 509.14 497.924 503.81 496.397 500.185C495.118 497.15 491.682 495.689 489 494.15C482.997 490.707 476.946 487.34 471 483.799C446.213 469.038 420.952 455.057 396 440.576C324.784 399.244 253.512 357.969 182 317.15C160.286 304.756 138.725 292.097 117 279.719C106.601 273.794 95.5052 265.384 84 262z"/>
<path style="fill:#08ff7c; stroke:none;" d="M912 263C813.938 320.832 714.768 376.955 616 433.579C589.294 448.889 562.758 464.498 536 479.719L514 492.421C510.789 494.262 506.023 496.037 504.028 499.329C502.257 502.25 503 506.735 503 510L503 535L503 629L503 975C532.208 959.616 560.447 941.996 589 925.424C658.886 884.865 728.766 844.234 799 804.281C826.108 788.86 853.026 773.079 880 757.424C887.649 752.985 895.402 748.727 903 744.201C905.93 742.456 910.171 740.845 911.972 737.787C913.984 734.371 913 728.808 913 725L913 696L913 589C898.492 593.593 884.096 604.648 871 612.397C845.583 627.436 819.949 642.591 794 656.691C762.962 673.558 732.948 692.269 702 709.306C694.596 713.381 687.289 717.73 680 722.011C677.533 723.46 673.504 727.038 670.425 726.323C667.443 725.631 665.003 721.749 664.318 719C662.364 711.162 664 701.067 664 693L664 610L664 590C664 585.758 663.574 581.568 666.318 578.015C670.978 571.981 679.499 568.417 686 564.719C698.036 557.873 709.996 550.899 722 544C765.651 518.913 809.275 493.808 853 468.85C866.692 461.034 880.304 453.084 894 445.281C899.23 442.301 908.766 438.967 911.972 433.671C913.467 431.202 912.999 427.757 913 425L913 405L913 331L913 284C913 277.58 914.497 268.951 912 263z"/>
<path style="fill:#ffffff; stroke:none;" d="M272 362C277.02 367.437 284.613 370.65 291 374.281C302.367 380.744 313.659 387.341 325 393.85C363.364 415.872 401.995 437.567 440 460.201C453.88 468.467 467.985 476.386 482 484.421C486.887 487.223 494.196 493.451 500 493.451C503.511 493.451 507.079 490.678 510 489C516.992 484.984 524.047 481.073 531 476.989C549.928 465.873 569.072 455.127 588 444.011C596.183 439.205 605.828 435.231 613 429C557.858 395.245 501.083 363.75 445 331.579C430.305 323.149 415.775 314.434 401 306.139C396.419 303.567 389.532 297.334 384 297.924C380.536 298.293 376.991 301.133 374 302.77C365.531 307.406 357.308 312.625 349 317.548C323.514 332.651 297.58 347.056 272 362z"/>
<path style="fill:#000000; stroke:none;" d="M1191 306C1169.49 320.191 1146.1 331.742 1124 345C1118.38 348.37 1112.69 351.601 1107 354.85C1104.41 356.328 1100.68 357.781 1099.03 360.39C1097.36 363.016 1098 367.041 1098 370L1098 391L1098 470C1120.77 459.355 1142.2 444.532 1164 432C1170.35 428.353 1176.69 424.697 1183 420.989C1185.57 419.478 1189.26 417.943 1190.97 415.39C1192.52 413.089 1192 409.623 1192 407L1192 389L1192 332C1192 324.256 1194 313.159 1191 306z"/>
<path style="fill:#ffffff; stroke:none;" d="M1103 461C1124.24 452.154 1144 437.659 1164 426.281C1169.36 423.234 1174.7 420.133 1180 416.989C1182.29 415.629 1185.25 414.241 1186.4 411.671C1187.64 408.895 1187 404.963 1187 402L1187 383L1187 315C1178.89 317.953 1171.48 323.292 1164 327.579C1150.63 335.245 1137.23 342.902 1124 350.799C1118.57 354.039 1106.21 358.169 1103.6 364.21C1102.38 367.049 1103 370.981 1103 374L1103 393L1103 461M1000 511C1003.85 509.342 1010.61 506.889 1012.4 502.787C1013.63 499.957 1013 496.011 1013 493L1013 474L1013 406C1009.32 407.34 1002.39 409.596 1000.6 413.39C999.331 416.096 1000 420.093 1000 423L1000 442L1000 511M912 440C890.564 454.184 867.321 466.109 845 478.85C808.277 499.811 771.659 520.931 735 542L688 569C683.331 571.683 672.97 575.336 670.603 580.39C669 583.813 670 589.304 670 593L670 621L670 722C690.405 713.207 709.708 699.482 729 688.421L844 622.421C860.348 613.049 876.81 603.836 893 594.201C898.473 590.943 908.344 587.79 911.972 582.39C913.801 579.669 913 575.106 913 572L913 548L913 473L913 452C913 448.017 913.552 443.699 912 440z"/>
<path style="fill:#000000; stroke:none;" d="M218.005 466.421C210.625 468.493 212 478.267 212 484L212 538L212 587C212 593.067 210.248 602.469 213.028 607.999C217.033 615.968 228.621 620.194 236 624.309C253.449 634.037 270.866 644.174 288 654.449C299.581 661.394 311.287 668.127 323 674.85C326.352 676.775 331.868 681.738 335.995 680.579C343.375 678.507 342 668.733 342 663L342 609L342 560C342 553.933 343.752 544.531 340.972 539.001C337.186 531.468 325.995 526.887 319 522.872C300.978 512.527 283.034 502.037 265 491.72L231 472.15C227.648 470.225 222.132 465.262 218.005 466.421z"/>
<path style="fill:#ffffff; stroke:none;" d="M218 471L218 570L218 596C218 599.466 217.105 604.544 219.028 607.621C221.042 610.843 225.824 612.604 229 614.421C236.689 618.82 244.298 623.34 252 627.719C269.748 637.81 287.342 648.176 305 658.424C315.146 664.313 325.228 671.358 336 676L336 577L336 551C336 547.534 336.895 542.456 334.972 539.379C332.939 536.125 328.167 534.45 325 532.551C317.407 527.998 309.688 523.678 302 519.28C284.292 509.15 266.498 499.044 249 488.551C238.984 482.545 228.725 475.622 218 471z"/>
<path style="fill:#05a751; stroke:none;" d="M1271 537L1272 538L1271 537z"/>
<path style="fill:#05b357; stroke:none;" d="M1264 541L1265 542L1264 541z"/>
<path style="fill:#049749; stroke:none;" d="M1259 544L1260 545L1259 544z"/>
<path style="fill:#05bb5a; stroke:none;" d="M1257 545L1258 546L1257 545z"/>
<path style="fill:#049f4d; stroke:none;" d="M1252 548L1253 549L1252 548z"/>
<path style="fill:#05a751; stroke:none;" d="M1245 552L1246 553L1245 552z"/>
<path style="fill:#05b758; stroke:none;" d="M1238 556L1239 557L1238 556z"/>
<path style="fill:#049749; stroke:none;" d="M1233 559L1234 560L1233 559z"/>
<path style="fill:#05a34f; stroke:none;" d="M1226 563L1227 564L1226 563z"/>
<path style="fill:#05ab53; stroke:none;" d="M1219 567L1220 568L1219 567z"/>
<path style="fill:#049347; stroke:none;" d="M1214 570L1215 571L1214 570z"/>
<path style="fill:#05b758; stroke:none;" d="M1212 571L1213 572L1212 571z"/>
<path style="fill:#049b4b; stroke:none;" d="M1207 574L1208 575L1207 574z"/>
<path style="fill:#05a34f; stroke:none;" d="M1200 578L1201 579L1200 578z"/>
<path style="fill:#05b357; stroke:none;" d="M1096 638L1097 639L1096 638z"/>
<path style="fill:#049347; stroke:none;" d="M1091 641L1092 642L1091 641z"/>
<path style="fill:#05bb5a; stroke:none;" d="M1089 642L1090 643L1089 642z"/>
<path style="fill:#049f4d; stroke:none;" d="M1084 645L1085 646L1084 645z"/>
<path style="fill:#05a751; stroke:none;" d="M1077 649L1078 650L1077 649z"/>
<path style="fill:#05b357; stroke:none;" d="M1070 653L1071 654L1070 653z"/>
<path style="fill:#049749; stroke:none;" d="M1065 656L1066 657L1065 656z"/>
<path style="fill:#049f4d; stroke:none;" d="M1058 660L1059 661L1058 660z"/>
<path style="fill:#05ab53; stroke:none;" d="M1051 664L1052 665L1051 664z"/>
<path style="fill:#05b758; stroke:none;" d="M1044 668L1045 669L1044 668z"/>
<path style="fill:#049b4b; stroke:none;" d="M1039 671L1040 672L1039 671z"/>
<path style="fill:#05a34f; stroke:none;" d="M1032 675L1033 676L1032 675z"/>
<path style="fill:#05ab53; stroke:none;" d="M1025 679L1026 680L1025 679z"/>
<path style="fill:#049347; stroke:none;" d="M1020 682L1021 683L1020 682z"/>
<path style="fill:#05b758; stroke:none;" d="M1018 683L1019 684L1018 683z"/>
<path style="fill:#ffffff; stroke:none;" d="M213 716L213 783L213 802C213 805.041 212.395 808.947 213.603 811.815C215.008 815.15 219.064 816.736 222 818.421L244 831.15C264.378 842.782 284.612 854.665 305 866.281C313.621 871.193 322.006 876.801 331 881L331 814L331 795C331 791.981 331.62 788.049 330.397 785.21C328.999 781.967 324.864 780.37 322 778.716L300 766C281.635 755.444 263.273 744.858 245 734.139C234.572 728.022 224.106 720.786 213 716z"/>
<path style="fill:#05a751; stroke:none;" d="M912 738L913 739L912 738z"/>
<path style="fill:#ab0a53; stroke:none;" d="M85 739L86 740L85 739z"/>
<path style="fill:#440421; stroke:none;" d="M86 740L87 741L86 740z"/>
<path style="fill:#036832; stroke:none;" d="M909 740L910 741L909 740z"/>
<path style="fill:#680632; stroke:none;" d="M88 741L89 742L88 741z"/>
<path style="fill:#048b43; stroke:none;" d="M907 741L908 742L907 741z"/>
<path style="fill:#930947; stroke:none;" d="M90 742L91 743L90 742z"/>
<path style="fill:#05b758; stroke:none;" d="M905 742L906 743L905 742z"/>
<path style="fill:#b70b58; stroke:none;" d="M92 743L93 744L92 743z"/>
<path style="fill:#024823; stroke:none;" d="M904 743L905 744L904 743z"/>
<path style="fill:#4c0424; stroke:none;" d="M93 744L94 745L93 744z"/>
<path style="fill:#037438; stroke:none;" d="M902 744L903 745L902 744z"/>
<path style="fill:#740738; stroke:none;" d="M95 745L96 746L95 745z"/>
<path style="fill:#049749; stroke:none;" d="M900 745L901 746L900 745z"/>
<path style="fill:#9b094b; stroke:none;" d="M97 746L98 747L97 746z"/>
<path style="fill:#02582a; stroke:none;" d="M897 747L898 748L897 747z"/>
<path style="fill:#58052a; stroke:none;" d="M100 748L101 749L100 748z"/>
<path style="fill:#037c3c; stroke:none;" d="M895 748L896 749L895 748z"/>
<path style="fill:#7f073d; stroke:none;" d="M102 749L103 750L102 749z"/>
<path style="fill:#05a34f; stroke:none;" d="M893 749L894 750L893 749z"/>
<path style="fill:#a30a4f; stroke:none;" d="M104 750L105 751L104 750z"/>
<path style="fill:#03602e; stroke:none;" d="M890 751L891 752L890 751z"/>
<path style="fill:#60062e; stroke:none;" d="M107 752L108 753L107 752z"/>
<path style="fill:#04833f; stroke:none;" d="M888 752L889 753L888 752z"/>
<path style="fill:#870841; stroke:none;" d="M109 753L110 754L109 753z"/>
<path style="fill:#05ab53; stroke:none;" d="M886 753L887 754L886 753z"/>
<path style="fill:#b30b57; stroke:none;" d="M111 754L112 755L111 754z"/>
<path style="fill:#024421; stroke:none;" d="M885 754L886 755L885 754z"/>
<path style="fill:#440421; stroke:none;" d="M112 755L113 756L112 755z"/>
<path style="fill:#036832; stroke:none;" d="M883 755L884 756L883 755z"/>
<path style="fill:#6c0634; stroke:none;" d="M114 756L115 757L114 756z"/>
<path style="fill:#049347; stroke:none;" d="M881 756L882 757L881 756z"/>
<path style="fill:#930947; stroke:none;" d="M116 757L117 758L116 757z"/>
<path style="fill:#05b758; stroke:none;" d="M879 757L880 758L879 757z"/>
<path style="fill:#bb0b5a; stroke:none;" d="M118 758L119 759L118 758z"/>
<path style="fill:#024c24; stroke:none;" d="M878 758L879 759L878 758z"/>
<path style="fill:#4c0424; stroke:none;" d="M119 759L120 760L119 759z"/>
<path style="fill:#037438; stroke:none;" d="M876 759L877 760L876 759z"/>
<path style="fill:#78073a; stroke:none;" d="M121 760L122 761L121 760z"/>
<path style="fill:#049b4b; stroke:none;" d="M874 760L875 761L874 760z"/>
<path style="fill:#9f094d; stroke:none;" d="M123 761L124 762L123 761z"/>
<path style="fill:#02582a; stroke:none;" d="M871 762L872 763L871 762z"/>
<path style="fill:#5c052c; stroke:none;" d="M126 763L127 764L126 763z"/>
<path style="fill:#037f3d; stroke:none;" d="M869 763L870 764L869 763z"/>
<path style="fill:#7f073d; stroke:none;" d="M128 764L129 765L128 764z"/>
<path style="fill:#05a34f; stroke:none;" d="M867 764L868 765L867 764z"/>
<path style="fill:#a70a51; stroke:none;" d="M130 765L131 766L130 765z"/>
<path style="fill:#03602e; stroke:none;" d="M864 766L865 767L864 766z"/>
<path style="fill:#640630; stroke:none;" d="M133 767L134 768L133 767z"/>
<path style="fill:#048741; stroke:none;" d="M862 767L863 768L862 767z"/>
<path style="fill:#8b0843; stroke:none;" d="M135 768L136 769L135 768z"/>
<path style="fill:#05b357; stroke:none;" d="M860 768L861 769L860 768z"/>
<path style="fill:#b30b57; stroke:none;" d="M137 769L138 770L137 769z"/>
<path style="fill:#024421; stroke:none;" d="M859 769L860 770L859 769z"/>
<path style="fill:#480423; stroke:none;" d="M138 770L139 771L138 770z"/>
<path style="fill:#036c34; stroke:none;" d="M857 770L858 771L857 770z"/>
<path style="fill:#6c0634; stroke:none;" d="M140 771L141 772L140 771z"/>
<path style="fill:#049347; stroke:none;" d="M855 771L856 772L855 771z"/>
<path style="fill:#970949; stroke:none;" d="M142 772L143 773L142 772z"/>
<path style="fill:#05bb5a; stroke:none;" d="M853 772L854 773L853 772z"/>
<path style="fill:#bb0b5a; stroke:none;" d="M144 773L145 774L144 773z"/>
<path style="fill:#024c24; stroke:none;" d="M852 773L853 774L852 773z"/>
<path style="fill:#540528; stroke:none;" d="M145 774L146 775L145 774z"/>
<path style="fill:#03783a; stroke:none;" d="M850 774L851 775L850 774z"/>
<path style="fill:#7c073c; stroke:none;" d="M147 775L148 776L147 775z"/>
<path style="fill:#049f4d; stroke:none;" d="M848 775L849 776L848 775z"/>
<path style="fill:#9f094d; stroke:none;" d="M149 776L150 777L149 776z"/>
<path style="fill:#025c2c; stroke:none;" d="M845 777L846 778L845 777z"/>
<path style="fill:#5c052c; stroke:none;" d="M152 778L153 779L152 778z"/>
<path style="fill:#037f3d; stroke:none;" d="M843 778L844 779L843 778z"/>
<path style="fill:#83083f; stroke:none;" d="M154 779L155 780L154 779z"/>
<path style="fill:#05a751; stroke:none;" d="M841 779L842 780L841 779z"/>
<path style="fill:#a70a51; stroke:none;" d="M156 780L157 781L156 780z"/>
<path style="fill:#036430; stroke:none;" d="M838 781L839 782L838 781z"/>
<path style="fill:#680632; stroke:none;" d="M159 782L160 783L159 782z"/>
<path style="fill:#048b43; stroke:none;" d="M836 782L837 783L836 782z"/>
<path style="fill:#8b0843; stroke:none;" d="M161 783L162 784L161 783z"/>
<path style="fill:#05b357; stroke:none;" d="M834 783L835 784L834 783z"/>
<path style="fill:#b70b58; stroke:none;" d="M163 784L164 785L163 784z"/>
<path style="fill:#024823; stroke:none;" d="M833 784L834 785L833 784z"/>
<path style="fill:#480423; stroke:none;" d="M164 785L165 786L164 785z"/>
<path style="fill:#036c34; stroke:none;" d="M831 785L832 786L831 785z"/>
<path style="fill:#740738; stroke:none;" d="M166 786L167 787L166 786z"/>
<path style="fill:#049749; stroke:none;" d="M829 786L830 787L829 786z"/>
<path style="fill:#970949; stroke:none;" d="M168 787L169 788L168 787z"/>
<path style="fill:#05bb5a; stroke:none;" d="M827 787L828 788L827 787z"/>
<path style="fill:#025428; stroke:none;" d="M826 788L827 789L826 788z"/>
<path style="fill:#58052a; stroke:none;" d="M171 789L172 790L171 789z"/>
<path style="fill:#037c3c; stroke:none;" d="M824 789L825 790L824 789z"/>
<path style="fill:#7c073c; stroke:none;" d="M173 790L174 791L173 790z"/>
<path style="fill:#049f4d; stroke:none;" d="M822 790L823 791L822 790z"/>
<path style="fill:#a30a4f; stroke:none;" d="M175 791L176 792L175 791z"/>
<path style="fill:#025c2c; stroke:none;" d="M819 792L820 793L819 792z"/>
<path style="fill:#60062e; stroke:none;" d="M178 793L179 794L178 793z"/>
<path style="fill:#04833f; stroke:none;" d="M817 793L818 794L817 793z"/>
<path style="fill:#83083f; stroke:none;" d="M180 794L181 795L180 794z"/>
<path style="fill:#05a751; stroke:none;" d="M815 794L816 795L815 794z"/>
<path style="fill:#ab0a53; stroke:none;" d="M182 795L183 796L182 795z"/>
<path style="fill:#440421; stroke:none;" d="M183 796L184 797L183 796z"/>
<path style="fill:#036832; stroke:none;" d="M812 796L813 797L812 796z"/>
<path style="fill:#680632; stroke:none;" d="M185 797L186 798L185 797z"/>
<path style="fill:#048b43; stroke:none;" d="M810 797L811 798L810 797z"/>
<path style="fill:#930947; stroke:none;" d="M187 798L188 799L187 798z"/>
<path style="fill:#05b758; stroke:none;" d="M808 798L809 799L808 798z"/>
<path style="fill:#b70b58; stroke:none;" d="M189 799L190 800L189 799z"/>
<path style="fill:#024823; stroke:none;" d="M807 799L808 800L807 799z"/>
<path style="fill:#4c0424; stroke:none;" d="M190 800L191 801L190 800z"/>
<path style="fill:#037438; stroke:none;" d="M805 800L806 801L805 800z"/>
<path style="fill:#740738; stroke:none;" d="M192 801L193 802L192 801z"/>
<path style="fill:#049749; stroke:none;" d="M803 801L804 802L803 801z"/>
<path style="fill:#9b094b; stroke:none;" d="M194 802L195 803L194 802z"/>
<path style="fill:#02582a; stroke:none;" d="M800 803L801 804L800 803z"/>
<path style="fill:#58052a; stroke:none;" d="M197 804L198 805L197 804z"/>
<path style="fill:#037c3c; stroke:none;" d="M798 804L799 805L798 804z"/>
<path style="fill:#7f073d; stroke:none;" d="M199 805L200 806L199 805z"/>
<path style="fill:#05a34f; stroke:none;" d="M796 805L797 806L796 805z"/>
<path style="fill:#a30a4f; stroke:none;" d="M201 806L202 807L201 806z"/>
<path style="fill:#03602e; stroke:none;" d="M793 807L794 808L793 807z"/>
<path style="fill:#60062e; stroke:none;" d="M204 808L205 809L204 808z"/>
<path style="fill:#04833f; stroke:none;" d="M791 808L792 809L791 808z"/>
<path style="fill:#870841; stroke:none;" d="M206 809L207 810L206 809z"/>
<path style="fill:#05ab53; stroke:none;" d="M789 809L790 810L789 809z"/>
<path style="fill:#024421; stroke:none;" d="M788 810L789 811L788 810z"/>
<path style="fill:#036832; stroke:none;" d="M786 811L787 812L786 811z"/>
<path style="fill:#049347; stroke:none;" d="M784 812L785 813L784 812z"/>
<path style="fill:#939393; stroke:none;" d="M213 813L214 814L213 813z"/>
<path style="fill:#05b758; stroke:none;" d="M782 813L783 814L782 813z"/>
<path style="fill:#2c2c2c; stroke:none;" d="M214 814L215 815L214 814z"/>
<path style="fill:#bbbbbb; stroke:none;" d="M215 814L216 815L215 814z"/>
<path style="fill:#024c24; stroke:none;" d="M781 814L782 815L781 814z"/>
<path style="fill:#4c4c4c; stroke:none;" d="M216 815L217 816L216 815z"/>
<path style="fill:#037438; stroke:none;" d="M779 815L780 816L779 815z"/>
<path style="fill:#787878; stroke:none;" d="M218 816L219 817L218 816z"/>
<path style="fill:#049b4b; stroke:none;" d="M777 816L778 817L777 816z"/>
<path style="fill:#9f9f9f; stroke:none;" d="M220 817L221 818L220 817z"/>
<path style="fill:#343434; stroke:none;" d="M221 818L222 819L221 818z"/>
<path style="fill:#c3c3c3; stroke:none;" d="M222 818L223 819L222 818z"/>
<path style="fill:#02582a; stroke:none;" d="M774 818L775 819L774 818z"/>
<path style="fill:#5c5c5c; stroke:none;" d="M223 819L224 820L223 819z"/>
<path style="fill:#037f3d; stroke:none;" d="M772 819L773 820L772 819z"/>
<path style="fill:#7f7f7f; stroke:none;" d="M225 820L226 821L225 820z"/>
<path style="fill:#05a34f; stroke:none;" d="M770 820L771 821L770 820z"/>
<path style="fill:#a7a7a7; stroke:none;" d="M227 821L228 822L227 821z"/>
<path style="fill:#3c3c3c; stroke:none;" d="M228 822L229 823L228 822z"/>
<path style="fill:#cbcbcb; stroke:none;" d="M229 822L230 823L229 822z"/>
<path style="fill:#03602e; stroke:none;" d="M767 822L768 823L767 822z"/>
<path style="fill:#646464; stroke:none;" d="M230 823L231 824L230 823z"/>
<path style="fill:#048741; stroke:none;" d="M765 823L766 824L765 823z"/>
<path style="fill:#8b8b8b; stroke:none;" d="M232 824L233 825L232 824z"/>
<path style="fill:#05b357; stroke:none;" d="M763 824L764 825L763 824z"/>
<path style="fill:#b3b3b3; stroke:none;" d="M234 825L235 826L234 825z"/>
<path style="fill:#024421; stroke:none;" d="M762 825L763 826L762 825z"/>
<path style="fill:#484848; stroke:none;" d="M235 826L236 827L235 826z"/>
<path style="fill:#036c34; stroke:none;" d="M760 826L761 827L760 826z"/>
<path style="fill:#6c6c6c; stroke:none;" d="M237 827L238 828L237 827z"/>
<path style="fill:#049347; stroke:none;" d="M758 827L759 828L758 827z"/>
<path style="fill:#979797; stroke:none;" d="M239 828L240 829L239 828z"/>
<path style="fill:#05bb5a; stroke:none;" d="M756 828L757 829L756 828z"/>
<path style="fill:#2c2c2c; stroke:none;" d="M240 829L241 830L240 829z"/>
<path style="fill:#bbbbbb; stroke:none;" d="M241 829L242 830L241 829z"/>
<path style="fill:#024c24; stroke:none;" d="M755 829L756 830L755 829z"/>
<path style="fill:#545454; stroke:none;" d="M242 830L243 831L242 830z"/>
<path style="fill:#03783a; stroke:none;" d="M753 830L754 831L753 830z"/>
<path style="fill:#7c7c7c; stroke:none;" d="M244 831L245 832L244 831z"/>
<path style="fill:#049f4d; stroke:none;" d="M751 831L752 832L751 831z"/>
<path style="fill:#9f9f9f; stroke:none;" d="M246 832L247 833L246 832z"/>
<path style="fill:#383838; stroke:none;" d="M247 833L248 834L247 833z"/>
<path style="fill:#c7c7c7; stroke:none;" d="M248 833L249 834L248 833z"/>
<path style="fill:#025c2c; stroke:none;" d="M748 833L749 834L748 833z"/>
<path style="fill:#5c5c5c; stroke:none;" d="M249 834L250 835L249 834z"/>
<path style="fill:#037f3d; stroke:none;" d="M746 834L747 835L746 834z"/>
<path style="fill:#838383; stroke:none;" d="M251 835L252 836L251 835z"/>
<path style="fill:#05a751; stroke:none;" d="M744 835L745 836L744 835z"/>
<path style="fill:#a7a7a7; stroke:none;" d="M253 836L254 837L253 836z"/>
<path style="fill:#404040; stroke:none;" d="M254 837L255 838L254 837z"/>
<path style="fill:#cfcfcf; stroke:none;" d="M255 837L256 838L255 837z"/>
<path style="fill:#036430; stroke:none;" d="M741 837L742 838L741 837z"/>
<path style="fill:#686868; stroke:none;" d="M256 838L257 839L256 838z"/>
<path style="fill:#048b43; stroke:none;" d="M739 838L740 839L739 838z"/>
<path style="fill:#8b8b8b; stroke:none;" d="M258 839L259 840L258 839z"/>
<path style="fill:#05b357; stroke:none;" d="M737 839L738 840L737 839z"/>
<path style="fill:#b7b7b7; stroke:none;" d="M260 840L261 841L260 840z"/>
<path style="fill:#024823; stroke:none;" d="M736 840L737 841L736 840z"/>
<path style="fill:#484848; stroke:none;" d="M261 841L262 842L261 841z"/>
<path style="fill:#036c34; stroke:none;" d="M734 841L735 842L734 841z"/>
<path style="fill:#747474; stroke:none;" d="M263 842L264 843L263 842z"/>
<path style="fill:#049749; stroke:none;" d="M732 842L733 843L732 842z"/>
<path style="fill:#979797; stroke:none;" d="M265 843L266 844L265 843z"/>
<path style="fill:#05bb5a; stroke:none;" d="M730 843L731 844L730 843z"/>
<path style="fill:#303030; stroke:none;" d="M266 844L267 845L266 844z"/>
<path style="fill:#bfbfbf; stroke:none;" d="M267 844L268 845L267 844z"/>
<path style="fill:#025428; stroke:none;" d="M729 844L730 845L729 844z"/>
<path style="fill:#585858; stroke:none;" d="M268 845L269 846L268 845z"/>
<path style="fill:#037c3c; stroke:none;" d="M727 845L728 846L727 845z"/>
<path style="fill:#7c7c7c; stroke:none;" d="M270 846L271 847L270 846z"/>
<path style="fill:#049f4d; stroke:none;" d="M725 846L726 847L725 846z"/>
<path style="fill:#a3a3a3; stroke:none;" d="M272 847L273 848L272 847z"/>
<path style="fill:#383838; stroke:none;" d="M273 848L274 849L273 848z"/>
<path style="fill:#c7c7c7; stroke:none;" d="M274 848L275 849L274 848z"/>
<path style="fill:#025c2c; stroke:none;" d="M722 848L723 849L722 848z"/>
<path style="fill:#606060; stroke:none;" d="M275 849L276 850L275 849z"/>
<path style="fill:#04833f; stroke:none;" d="M720 849L721 850L720 849z"/>
<path style="fill:#838383; stroke:none;" d="M277 850L278 851L277 850z"/>
<path style="fill:#05a751; stroke:none;" d="M718 850L719 851L718 850z"/>
<path style="fill:#ababab; stroke:none;" d="M279 851L280 852L279 851z"/>
<path style="fill:#444444; stroke:none;" d="M280 852L281 853L280 852z"/>
<path style="fill:#d3d3d3; stroke:none;" d="M281 852L282 853L281 852z"/>
<path style="fill:#036832; stroke:none;" d="M715 852L716 853L715 852z"/>
<path style="fill:#686868; stroke:none;" d="M282 853L283 854L282 853z"/>
<path style="fill:#048b43; stroke:none;" d="M713 853L714 854L713 853z"/>
<path style="fill:#939393; stroke:none;" d="M284 854L285 855L284 854z"/>
<path style="fill:#05b758; stroke:none;" d="M711 854L712 855L711 854z"/>
<path style="fill:#b7b7b7; stroke:none;" d="M286 855L287 856L286 855z"/>
<path style="fill:#024823; stroke:none;" d="M710 855L711 856L710 855z"/>
<path style="fill:#4c4c4c; stroke:none;" d="M287 856L288 857L287 856z"/>
<path style="fill:#037438; stroke:none;" d="M708 856L709 857L708 856z"/>
<path style="fill:#747474; stroke:none;" d="M289 857L290 858L289 857z"/>
<path style="fill:#049b4b; stroke:none;" d="M706 857L707 858L706 857z"/>
<path style="fill:#9b9b9b; stroke:none;" d="M291 858L292 859L291 858z"/>
<path style="fill:#343434; stroke:none;" d="M292 859L293 860L292 859z"/>
<path style="fill:#c3c3c3; stroke:none;" d="M293 859L294 860L293 859z"/>
<path style="fill:#02582a; stroke:none;" d="M703 859L704 860L703 859z"/>
<path style="fill:#585858; stroke:none;" d="M294 860L295 861L294 860z"/>
<path style="fill:#037c3c; stroke:none;" d="M701 860L702 861L701 860z"/>
<path style="fill:#7f7f7f; stroke:none;" d="M296 861L297 862L296 861z"/>
<path style="fill:#05a34f; stroke:none;" d="M699 861L700 862L699 861z"/>
<path style="fill:#a3a3a3; stroke:none;" d="M298 862L299 863L298 862z"/>
<path style="fill:#3c3c3c; stroke:none;" d="M299 863L300 864L299 863z"/>
<path style="fill:#cbcbcb; stroke:none;" d="M300 863L301 864L300 863z"/>
<path style="fill:#03602e; stroke:none;" d="M696 863L697 864L696 863z"/>
<path style="fill:#646464; stroke:none;" d="M301 864L302 865L301 864z"/>
<path style="fill:#048741; stroke:none;" d="M694 864L695 865L694 864z"/>
<path style="fill:#878787; stroke:none;" d="M303 865L304 866L303 865z"/>
<path style="fill:#05ab53; stroke:none;" d="M692 865L693 866L692 865z"/>
<path style="fill:#b3b3b3; stroke:none;" d="M305 866L306 867L305 866z"/>
<path style="fill:#024421; stroke:none;" d="M691 866L692 867L691 866z"/>
<path style="fill:#444444; stroke:none;" d="M306 867L307 868L306 867z"/>
<path style="fill:#d3d3d3; stroke:none;" d="M307 867L308 868L307 867z"/>
<path style="fill:#036832; stroke:none;" d="M689 867L690 868L689 867z"/>
<path style="fill:#6c6c6c; stroke:none;" d="M308 868L309 869L308 868z"/>
<path style="fill:#049347; stroke:none;" d="M687 868L688 869L687 868z"/>
<path style="fill:#939393; stroke:none;" d="M310 869L311 870L310 869z"/>
<path style="fill:#05b758; stroke:none;" d="M685 869L686 870L685 869z"/>
<path style="fill:#2c2c2c; stroke:none;" d="M311 870L312 871L311 870z"/>
<path style="fill:#bbbbbb; stroke:none;" d="M312 870L313 871L312 870z"/>
<path style="fill:#024c24; stroke:none;" d="M684 870L685 871L684 870z"/>
<path style="fill:#505050; stroke:none;" d="M313 871L314 872L313 871z"/>
<path style="fill:#03783a; stroke:none;" d="M682 871L683 872L682 871z"/>
<path style="fill:#787878; stroke:none;" d="M315 872L316 873L315 872z"/>
<path style="fill:#049b4b; stroke:none;" d="M680 872L681 873L680 872z"/>
<path style="fill:#9f9f9f; stroke:none;" d="M317 873L318 874L317 873z"/>
<path style="fill:#343434; stroke:none;" d="M318 874L319 875L318 874z"/>
<path style="fill:#c3c3c3; stroke:none;" d="M319 874L320 875L319 874z"/>
<path style="fill:#02582a; stroke:none;" d="M677 874L678 875L677 874z"/>
<path style="fill:#5c5c5c; stroke:none;" d="M320 875L321 876L320 875z"/>
<path style="fill:#037f3d; stroke:none;" d="M675 875L676 876L675 875z"/>
<path style="fill:#7f7f7f; stroke:none;" d="M322 876L323 877L322 876z"/>
<path style="fill:#05a34f; stroke:none;" d="M673 876L674 877L673 876z"/>
<path style="fill:#a7a7a7; stroke:none;" d="M324 877L325 878L324 877z"/>
<path style="fill:#3c3c3c; stroke:none;" d="M325 878L326 879L325 878z"/>
<path style="fill:#cfcfcf; stroke:none;" d="M326 878L327 879L326 878z"/>
<path style="fill:#036430; stroke:none;" d="M670 878L671 879L670 878z"/>
<path style="fill:#646464; stroke:none;" d="M327 879L328 880L327 879z"/>
<path style="fill:#048741; stroke:none;" d="M668 879L669 880L668 879z"/>
<path style="fill:#8b8b8b; stroke:none;" d="M329 880L330 881L329 880z"/>
<path style="fill:#05b357; stroke:none;" d="M666 880L667 881L666 880z"/>
<path style="fill:#024421; stroke:none;" d="M665 881L666 882L665 881z"/>
<path style="fill:#036c34; stroke:none;" d="M663 882L664 883L663 882z"/>
<path style="fill:#049347; stroke:none;" d="M661 883L662 884L661 883z"/>
<path style="fill:#860841; stroke:none;" d="M336 884L337 885L336 884z"/>
<path style="fill:#05bb5a; stroke:none;" d="M659 884L660 885L659 884z"/>
<path style="fill:#025026; stroke:none;" d="M658 885L659 886L658 885z"/>
<path style="fill:#540528; stroke:none;" d="M339 886L340 887L339 886z"/>
<path style="fill:#03783a; stroke:none;" d="M656 886L657 887L656 886z"/>
<path style="fill:#7c073c; stroke:none;" d="M341 887L342 888L341 887z"/>
<path style="fill:#049f4d; stroke:none;" d="M654 887L655 888L654 887z"/>
<path style="fill:#9f094d; stroke:none;" d="M343 888L344 889L343 888z"/>
<path style="fill:#025c2c; stroke:none;" d="M651 889L652 890L651 889z"/>
<path style="fill:#5c052c; stroke:none;" d="M346 890L347 891L346 890z"/>
<path style="fill:#037f3d; stroke:none;" d="M649 890L650 891L649 890z"/>
<path style="fill:#83083f; stroke:none;" d="M348 891L349 892L348 891z"/>
<path style="fill:#05a751; stroke:none;" d="M647 891L648 892L647 891z"/>
<path style="fill:#ab0a53; stroke:none;" d="M350 892L351 893L350 892z"/>
<path style="fill:#036430; stroke:none;" d="M644 893L645 894L644 893z"/>
<path style="fill:#680632; stroke:none;" d="M353 894L354 895L353 894z"/>
<path style="fill:#048b43; stroke:none;" d="M642 894L643 895L642 894z"/>
<path style="fill:#8b0843; stroke:none;" d="M355 895L356 896L355 895z"/>
<path style="fill:#05b357; stroke:none;" d="M640 895L641 896L640 895z"/>
<path style="fill:#b70b58; stroke:none;" d="M357 896L358 897L357 896z"/>
<path style="fill:#024823; stroke:none;" d="M639 896L640 897L639 896z"/>
<path style="fill:#480423; stroke:none;" d="M358 897L359 898L358 897z"/>
<path style="fill:#036c34; stroke:none;" d="M637 897L638 898L637 897z"/>
<path style="fill:#740738; stroke:none;" d="M360 898L361 899L360 898z"/>
<path style="fill:#049749; stroke:none;" d="M635 898L636 899L635 898z"/>
<path style="fill:#9b094b; stroke:none;" d="M362 899L363 900L362 899z"/>
<path style="fill:#025428; stroke:none;" d="M632 900L633 901L632 900z"/>
<path style="fill:#58052a; stroke:none;" d="M365 901L366 902L365 901z"/>
<path style="fill:#037c3c; stroke:none;" d="M630 901L631 902L630 901z"/>
<path style="fill:#7c073c; stroke:none;" d="M367 902L368 903L367 902z"/>
<path style="fill:#049f4d; stroke:none;" d="M628 902L629 903L628 902z"/>
<path style="fill:#a30a4f; stroke:none;" d="M369 903L370 904L369 903z"/>
<path style="fill:#025c2c; stroke:none;" d="M625 904L626 905L625 904z"/>
<path style="fill:#60062e; stroke:none;" d="M372 905L373 906L372 905z"/>
<path style="fill:#04833f; stroke:none;" d="M623 905L624 906L623 905z"/>
<path style="fill:#870841; stroke:none;" d="M374 906L375 907L374 906z"/>
<path style="fill:#05ab53; stroke:none;" d="M621 906L622 907L621 906z"/>
<path style="fill:#ab0a53; stroke:none;" d="M376 907L377 908L376 907z"/>
<path style="fill:#440421; stroke:none;" d="M377 908L378 909L377 908z"/>
<path style="fill:#036832; stroke:none;" d="M618 908L619 909L618 908z"/>
<path style="fill:#680632; stroke:none;" d="M379 909L380 910L379 909z"/>
<path style="fill:#048b43; stroke:none;" d="M616 909L617 910L616 909z"/>
<path style="fill:#930947; stroke:none;" d="M381 910L382 911L381 910z"/>
<path style="fill:#05b758; stroke:none;" d="M614 910L615 911L614 910z"/>
<path style="fill:#b70b58; stroke:none;" d="M383 911L384 912L383 911z"/>
<path style="fill:#024823; stroke:none;" d="M613 911L614 912L613 911z"/>
<path style="fill:#4c0424; stroke:none;" d="M384 912L385 913L384 912z"/>
<path style="fill:#037438; stroke:none;" d="M611 912L612 913L611 912z"/>
<path style="fill:#78073a; stroke:none;" d="M386 913L387 914L386 913z"/>
<path style="fill:#049b4b; stroke:none;" d="M609 913L610 914L609 913z"/>
<path style="fill:#9b094b; stroke:none;" d="M388 914L389 915L388 914z"/>
<path style="fill:#02582a; stroke:none;" d="M606 915L607 916L606 915z"/>
<path style="fill:#58052a; stroke:none;" d="M391 916L392 917L391 916z"/>
<path style="fill:#037c3c; stroke:none;" d="M604 916L605 917L604 916z"/>
<path style="fill:#7f073d; stroke:none;" d="M393 917L394 918L393 917z"/>
<path style="fill:#05a34f; stroke:none;" d="M602 917L603 918L602 917z"/>
<path style="fill:#a30a4f; stroke:none;" d="M395 918L396 919L395 918z"/>
<path style="fill:#03602e; stroke:none;" d="M599 919L600 920L599 919z"/>
<path style="fill:#640630; stroke:none;" d="M398 920L399 921L398 920z"/>
<path style="fill:#048741; stroke:none;" d="M597 920L598 921L597 920z"/>
<path style="fill:#870841; stroke:none;" d="M400 921L401 922L400 921z"/>
<path style="fill:#05ab53; stroke:none;" d="M595 921L596 922L595 921z"/>
<path style="fill:#b30b57; stroke:none;" d="M402 922L403 923L402 922z"/>
<path style="fill:#024421; stroke:none;" d="M594 922L595 923L594 922z"/>
<path style="fill:#440421; stroke:none;" d="M403 923L404 924L403 923z"/>
<path style="fill:#036832; stroke:none;" d="M592 923L593 924L592 923z"/>
<path style="fill:#6c0634; stroke:none;" d="M405 924L406 925L405 924z"/>
<path style="fill:#049347; stroke:none;" d="M590 924L591 925L590 924z"/>
<path style="fill:#930947; stroke:none;" d="M407 925L408 926L407 925z"/>
<path style="fill:#05b758; stroke:none;" d="M588 925L589 926L588 925z"/>
<path style="fill:#bb0b5a; stroke:none;" d="M409 926L410 927L409 926z"/>
<path style="fill:#024c24; stroke:none;" d="M587 926L588 927L587 926z"/>
<path style="fill:#500526; stroke:none;" d="M410 927L411 928L410 927z"/>
<path style="fill:#03783a; stroke:none;" d="M585 927L586 928L585 927z"/>
<path style="fill:#78073a; stroke:none;" d="M412 928L413 929L412 928z"/>
<path style="fill:#049b4b; stroke:none;" d="M583 928L584 929L583 928z"/>
<path style="fill:#9f094d; stroke:none;" d="M414 929L415 930L414 929z"/>
<path style="fill:#02582a; stroke:none;" d="M580 930L581 931L580 930z"/>
<path style="fill:#5c052c; stroke:none;" d="M417 931L418 932L417 931z"/>
<path style="fill:#037f3d; stroke:none;" d="M578 931L579 932L578 931z"/>
<path style="fill:#7f073d; stroke:none;" d="M419 932L420 933L419 932z"/>
<path style="fill:#05a34f; stroke:none;" d="M576 932L577 933L576 932z"/>
<path style="fill:#a70a51; stroke:none;" d="M421 933L422 934L421 933z"/>
<path style="fill:#036430; stroke:none;" d="M573 934L574 935L573 934z"/>
<path style="fill:#640630; stroke:none;" d="M424 935L425 936L424 935z"/>
<path style="fill:#048741; stroke:none;" d="M571 935L572 936L571 935z"/>
<path style="fill:#8b0843; stroke:none;" d="M426 936L427 937L426 936z"/>
<path style="fill:#05b357; stroke:none;" d="M569 936L570 937L569 936z"/>
<path style="fill:#b30b57; stroke:none;" d="M428 937L429 938L428 937z"/>
<path style="fill:#024421; stroke:none;" d="M568 937L569 938L568 937z"/>
<path style="fill:#480423; stroke:none;" d="M429 938L430 939L429 938z"/>
<path style="fill:#036c34; stroke:none;" d="M566 938L567 939L566 938z"/>
<path style="fill:#6c0634; stroke:none;" d="M431 939L432 940L431 939z"/>
<path style="fill:#049347; stroke:none;" d="M564 939L565 940L564 939z"/>
<path style="fill:#970949; stroke:none;" d="M433 940L434 941L433 940z"/>
<path style="fill:#05bb5a; stroke:none;" d="M562 940L563 941L562 940z"/>
<path style="fill:#025026; stroke:none;" d="M561 941L562 942L561 941z"/>
<path style="fill:#540528; stroke:none;" d="M436 942L437 943L436 942z"/>
<path style="fill:#03783a; stroke:none;" d="M559 942L560 943L559 942z"/>
<path style="fill:#7c073c; stroke:none;" d="M438 943L439 944L438 943z"/>
<path style="fill:#049f4d; stroke:none;" d="M557 943L558 944L557 943z"/>
<path style="fill:#9f094d; stroke:none;" d="M440 944L441 945L440 944z"/>
<path style="fill:#025c2c; stroke:none;" d="M554 945L555 946L554 945z"/>
<path style="fill:#5c052c; stroke:none;" d="M443 946L444 947L443 946z"/>
<path style="fill:#037f3d; stroke:none;" d="M552 946L553 947L552 946z"/>
<path style="fill:#83083f; stroke:none;" d="M445 947L446 948L445 947z"/>
<path style="fill:#05a751; stroke:none;" d="M550 947L551 948L550 947z"/>
<path style="fill:#ab0a53; stroke:none;" d="M447 948L448 949L447 948z"/>
<path style="fill:#036430; stroke:none;" d="M547 949L548 950L547 949z"/>
<path style="fill:#680632; stroke:none;" d="M450 950L451 951L450 950z"/>
<path style="fill:#048b43; stroke:none;" d="M545 950L546 951L545 950z"/>
<path style="fill:#8b0843; stroke:none;" d="M452 951L453 952L452 951z"/>
<path style="fill:#05b357; stroke:none;" d="M543 951L544 952L543 951z"/>
<path style="fill:#b70b58; stroke:none;" d="M454 952L455 953L454 952z"/>
<path style="fill:#024823; stroke:none;" d="M542 952L543 953L542 952z"/>
<path style="fill:#480423; stroke:none;" d="M455 953L456 954L455 953z"/>
<path style="fill:#036c34; stroke:none;" d="M540 953L541 954L540 953z"/>
<path style="fill:#740738; stroke:none;" d="M457 954L458 955L457 954z"/>
<path style="fill:#049749; stroke:none;" d="M538 954L539 955L538 954z"/>
<path style="fill:#9b094b; stroke:none;" d="M459 955L460 956L459 955z"/>
<path style="fill:#025428; stroke:none;" d="M535 956L536 957L535 956z"/>
<path style="fill:#58052a; stroke:none;" d="M462 957L463 958L462 957z"/>
<path style="fill:#037c3c; stroke:none;" d="M533 957L534 958L533 957z"/>
<path style="fill:#7c073c; stroke:none;" d="M464 958L465 959L464 958z"/>
<path style="fill:#049f4d; stroke:none;" d="M531 958L532 959L531 958z"/>
<path style="fill:#a30a4f; stroke:none;" d="M466 959L467 960L466 959z"/>
<path style="fill:#025c2c; stroke:none;" d="M528 960L529 961L528 960z"/>
<path style="fill:#60062e; stroke:none;" d="M469 961L470 962L469 961z"/>
<path style="fill:#04833f; stroke:none;" d="M526 961L527 962L526 961z"/>
<path style="fill:#870841; stroke:none;" d="M471 962L472 963L471 962z"/>
<path style="fill:#05ab53; stroke:none;" d="M524 962L525 963L524 962z"/>
<path style="fill:#ab0a53; stroke:none;" d="M473 963L474 964L473 963z"/>
<path style="fill:#440421; stroke:none;" d="M474 964L475 965L474 964z"/>
<path style="fill:#036832; stroke:none;" d="M521 964L522 965L521 964z"/>
<path style="fill:#680632; stroke:none;" d="M476 965L477 966L476 965z"/>
<path style="fill:#048b43; stroke:none;" d="M519 965L520 966L519 965z"/>
<path style="fill:#930947; stroke:none;" d="M478 966L479 967L478 966z"/>
<path style="fill:#05b758; stroke:none;" d="M517 966L518 967L517 966z"/>
<path style="fill:#b70b58; stroke:none;" d="M480 967L481 968L480 967z"/>
<path style="fill:#024823; stroke:none;" d="M516 967L517 968L516 967z"/>
<path style="fill:#4c0424; stroke:none;" d="M481 968L482 969L481 968z"/>
<path style="fill:#037438; stroke:none;" d="M514 968L515 969L514 968z"/>
<path style="fill:#78073a; stroke:none;" d="M483 969L484 970L483 969z"/>
<path style="fill:#049b4b; stroke:none;" d="M512 969L513 970L512 969z"/>
<path style="fill:#9b094b; stroke:none;" d="M485 970L486 971L485 970z"/>
<path style="fill:#02582a; stroke:none;" d="M509 971L510 972L509 971z"/>
<path style="fill:#58052a; stroke:none;" d="M488 972L489 973L488 972z"/>
<path style="fill:#037c3c; stroke:none;" d="M507 972L508 973L507 972z"/>
<path style="fill:#7f073d; stroke:none;" d="M490 973L491 974L490 973z"/>
<path style="fill:#05a34f; stroke:none;" d="M505 973L506 974L505 973z"/>
<path style="fill:#a30a4f; stroke:none;" d="M492 974L493 975L492 974z"/>
<path style="fill:#640630; stroke:none;" d="M495 976L496 977L495 976z"/>
</svg>
