<svg xmlns="http://www.w3.org/2000/svg" width="1600" height="1000">
<path style="fill: #ffffff;stroke:none;" d="M0 0L0 1000L1000 1000L1000 701L1000 638C1000 629.952 997.662 617.573 1000.6 610.043C1002.35 605.571 1008.16 603.35 1012 601L1012 663C1012 668.998 1009.61 681.747 1013.74 686.566C1019.13 692.85 1031.97 681.892 1037 679C1053.35 669.603 1069.61 660.04 1086 650.719C1091.74 647.453 1102.39 643.663 1105.82 637.79C1108.5 633.209 1107 625.128 1107 620L1107 576C1107 570.462 1105 559.951 1108.6 555.379C1113.6 549.049 1125.13 545.122 1132 541C1151.38 529.373 1171 517.533 1191 507L1191 563C1191 568.402 1188.96 579.205 1192.74 583.562C1197.78 589.376 1210.26 578.979 1215 576.281C1231.05 567.149 1247.03 557.847 1263 548.576C1268.56 545.351 1278.61 541.703 1281.82 535.896C1284.08 531.802 1283 525.513 1283 521L1283 486C1283 481.463 1281.66 474.262 1284.03 470.21C1286.87 465.346 1295.27 462.417 1300 459.719C1310.71 453.614 1321.3 447.29 1332 441.15C1336.42 438.613 1343.2 435.98 1346.26 431.787C1349.88 426.806 1348 416.859 1348 411L1348 358C1348 352.61 1350.5 338.886 1342.96 337.542C1337.02 336.485 1327.9 344.132 1323 347.011C1306.39 356.767 1289.63 366.286 1273 376L1273 309L1273 290C1273 286.915 1272.41 283.024 1273.6 280.104C1276 274.226 1286.8 270.591 1292 267.576L1330 245.424C1335.1 242.466 1342.77 239.751 1346.26 234.815C1350.34 229.041 1348 216.787 1348 210L1348 147C1348 140.768 1348.59 134.199 1347.89 128.004C1347.6 125.406 1346.63 122.722 1343.89 121.847C1338.15 120.014 1328.74 128.025 1324 130.719C1305.93 141 1287.95 151.515 1270 162L1270 92L1270 73C1270 70.178 1270.36 66.7476 1268.82 64.2284C1264.3 56.8535 1252.77 66.6871 1248 69.4213C1232.3 78.4205 1216.65 87.4935 1201 96.5756C1195.63 99.6916 1186.22 102.883 1183.74 109.04C1181.3 115.13 1183 124.511 1183 131L1183 180C1183 186.207 1185.49 199.453 1181.4 204.471C1175.89 211.225 1163.51 215.685 1156 220C1136.97 230.938 1117.95 241.931 1099 253L1099 187C1099 180.815 1101.5 167.39 1097.26 162.434C1092.1 156.417 1080.81 165.82 1076 168.579C1060.64 177.386 1045.36 186.335 1030 195.15C1024.92 198.064 1015.15 201.39 1012.74 207.104C1010.33 212.813 1012 221.883 1012 228L1012 274C1012 280.043 1014.17 291.385 1010.97 296.671C1008.83 300.203 1003.59 302.322 1000 304L1000 0L0 0z"/>
<path style="fill: #ffffff;stroke:none;" d="M1000 0L1000 304C1003.67 302.839 1008.78 300.865 1010.97 297.471C1014.1 292.622 1012 281.625 1012 276L1012 229C1012 222.795 1010.39 213.867 1012.74 208.043C1015.17 202.046 1024.72 198.726 1030 195.719C1045.38 186.954 1060.62 177.928 1076 169.15C1080.98 166.309 1092.22 156.673 1097.26 163.232C1101.43 168.658 1099 181.47 1099 188L1099 253C1106.77 249.765 1113.72 245.027 1121 240.85L1162 217.15C1167.35 214.078 1180.88 209.124 1182.68 202.815C1184.52 196.413 1183 187.643 1183 181L1183 134C1183 126.847 1180.6 114.247 1184.74 108.093C1188.57 102.406 1197.25 99.3644 1203 95.9892C1217.6 87.4125 1232.31 79.002 1247 70.5787C1251.93 67.7533 1263.3 57.7806 1268.26 64.2322C1270.16 66.711 1269.98 70.0481 1270 73L1270 91L1270 162C1288.84 154.154 1306.27 141.38 1324 131.281C1328.49 128.72 1338.52 120.293 1343.89 122.392C1350.94 125.146 1348 142.036 1348 148L1348 202C1348 210.848 1348.88 220.207 1347.89 229C1346.9 237.831 1335.71 241.528 1329 245.424L1291 267.576C1285.99 270.486 1278.4 273.141 1274.6 277.61C1272.65 279.916 1273.01 283.177 1273 286L1273 304L1273 376C1291.11 368.458 1308.04 356.269 1325 346.424C1329.28 343.938 1338.77 336.02 1343.89 338.287C1350.3 341.125 1348 353.445 1348 359L1348 407C1348 413.531 1349.68 422.84 1347.26 428.985C1345.02 434.671 1336.96 437.697 1332 440.576C1321 446.958 1310.05 453.425 1299 459.719C1294.58 462.237 1286.8 464.942 1284.03 469.379C1281.61 473.246 1283 480.606 1283 485L1283 519C1283 523.837 1284.16 530.543 1281.82 534.957C1278.58 541.076 1268.74 544.617 1263 547.989C1247.07 557.343 1231.05 566.576 1215 575.719C1210.34 578.373 1198.56 588.249 1193.43 583.523C1188.94 579.387 1191 568.514 1191 563L1191 507C1182.89 509.953 1175.48 515.292 1168 519.579C1154.63 527.245 1141.23 534.902 1128 542.799C1122.57 546.042 1109.13 550.573 1107.32 557.104C1105.76 562.73 1107 570.182 1107 576L1107 616C1107 622.092 1109 632.61 1105.26 637.79C1100.88 643.857 1090.39 647.647 1084 651.281C1068.27 660.222 1052.69 669.424 1037 678.421C1031.82 681.388 1018.96 692.552 1013.74 685.768C1009.69 680.497 1012 668.33 1012 662L1012 601C1008.34 602.578 1003.14 604.6 1001.03 608.21C997.855 613.64 1000 624.845 1000 631L1000 698L1000 1000L1600 1000L1600 0L1000 0z"/>
<path style="fill:#08a3ff; stroke:none;" d="M87 257C130.019 282.37 174.022 306.135 217 331.603C228.922 338.668 240.978 345.529 253 352.421C256.74 354.565 262.487 359.473 267 359.043C269.92 358.765 272.551 356.296 275 354.875L293 344.421C314.711 331.974 336.055 318.783 358 306.77C364.438 303.246 370.563 299.216 377 295.694C379.434 294.363 382.087 292.322 385 292.464C390.117 292.713 395.675 297.711 400 300.139C412.763 307.304 425.378 314.735 438 322.139C479.51 346.489 521.724 369.697 563 394.449C575.881 402.173 589.033 409.437 602 417.012C606.171 419.448 612.247 425.453 617 425.982C619.501 426.261 621.938 424.437 624 423.28L639 414.719C658.388 403.672 677.828 392.618 697 381.201C740.61 355.228 784.978 330.419 829 305.15C856.297 289.481 883.153 272.668 911 258C900.423 249.145 885.997 242.998 874 236.15C852.266 223.745 830.71 211.025 809 198.579C741.221 159.721 673.779 120.279 606 81.4213C580.297 66.6858 554.547 51.9933 529 36.9892C522.027 32.8939 515.024 28.8564 508 24.8495C505.064 23.1746 501.536 20.4117 498 20.4993C494.478 20.5865 490.942 23.3102 488 25L467 37.1497C440.967 52.0928 415.069 67.2706 389 82.1505C318.481 122.402 248.016 162.868 178 203.989C158.098 215.678 138.023 227.099 118 238.579C107.914 244.361 95.9014 249.548 87 257z"/>
<path style="fill:#08ff7c; stroke:none;" d="M1094 262L1094 165C1086.2 167.294 1079.03 172.55 1072 176.579C1059.98 183.471 1047.92 190.332 1036 197.397C1031.1 200.302 1019.03 204.356 1017.32 210.21C1015.54 216.286 1017 224.686 1017 231L1017 276C1017 282.171 1019.31 294.275 1015.97 299.621C1012.51 305.158 1002.47 308.368 997 311.603C982.735 320.044 968.381 328.334 954 336.579C948.188 339.911 938.88 343.307 934.603 348.529C932.669 350.892 933.006 354.14 933 357L933 375L933 445C944.936 441.555 956.385 432.752 967 426.4C983.833 416.326 1001.27 407.243 1018 397L1018 475L1018 496C1018 499.014 1018.61 502.972 1016.97 505.671C1013.79 510.924 1004.15 514.131 999 517.201C983.78 526.265 968.364 535.031 953 543.85C947.75 546.864 937.5 550.656 934.028 555.637C932.612 557.669 933.005 560.664 933 563L933 579L933 641C962.077 627.408 987.517 605.704 1017 593L1017 684C1038.9 674.833 1059.37 660.019 1080 648.281C1085.36 645.234 1090.68 642.121 1096 639C1098.24 637.684 1100.89 636.469 1101.68 633.787C1103.31 628.284 1102 620.717 1102 615L1102 574C1102 568.323 1100.07 558.229 1103.03 553.213C1104.67 550.433 1108.31 548.962 1111 547.421C1116.68 544.163 1122.39 540.967 1128 537.6C1150.43 524.148 1174.16 512.403 1196 498L1196 581C1216.62 571.371 1236.41 558.212 1256 546.603C1260.96 543.665 1266.01 540.893 1271 538C1273.31 536.658 1276.27 535.389 1277.4 532.787C1279.26 528.489 1278 521.614 1278 517L1278 483C1278 478.478 1276.65 471.245 1279.03 467.213C1281.83 462.461 1290.35 459.506 1295 456.85C1305.38 450.925 1315.64 444.8 1326 438.85C1330.71 436.146 1337.8 433.493 1341.4 429.366C1345.41 424.758 1343 411.821 1343 406L1343 342C1331.46 346.202 1320.55 354.142 1310 360.397C1296.07 368.65 1281.5 376.066 1268 385L1268 309L1268 288C1268 284.639 1267.31 280.281 1268.6 277.105C1271.03 271.166 1282.69 267.196 1288 264.15C1300.37 257.047 1312.72 249.878 1325 242.603C1329.99 239.647 1337.68 237.007 1341.4 232.471C1343.51 229.889 1343 226.114 1343 223L1343 204L1343 126C1330.14 131.542 1318.07 139.902 1306 146.989C1292.38 154.99 1278.17 162.282 1265 171L1265 66C1257.3 68.8201 1250.11 73.9125 1243 78C1230.99 84.9028 1218.9 91.7111 1207 98.7994C1201.82 101.883 1190.03 105.809 1188.32 112.093C1186.46 118.884 1188 127.975 1188 135L1188 182L1188 199C1187.99 201.459 1188.34 204.435 1186.97 206.621C1185.3 209.295 1181.62 210.843 1179 212.397C1172.7 216.132 1166.35 219.78 1160 223.421C1138.01 236.029 1115.13 248.016 1094 262z"/>
<path style="fill: #ffffff;stroke:none;" d="M440 223C446.849 232.641 459.93 237.818 470 243.579C490.387 255.242 510.629 267.156 531 278.85L552 291.001C554.934 292.676 558.438 295.411 562 295.088C565.841 294.74 569.784 291.718 573 289.799C580.302 285.444 587.586 281.023 595 276.861C612.12 267.25 628.911 257.08 646 247.424C658.328 240.459 671.822 233.961 682 224C675.799 215.276 664.91 211.363 656 205.938C634.283 192.717 611.995 180.341 590 167.576L570 156.011C567.124 154.323 563.52 151.549 560 151.924C556.536 152.293 552.991 155.133 550 156.77C541.531 161.406 533.308 166.625 525 171.548C507.464 181.94 489.707 192.043 472 202.15C461.011 208.423 449.09 214.104 440 223z"/>
<path style="fill: #ffffff;stroke:none;" d="M446 223C454.048 230.28 465.587 235.025 475 240.421C494.043 251.339 513.012 262.405 532 273.424C538.666 277.293 545.308 281.179 552 285.001C554.934 286.676 558.438 289.411 562 289.088C565.841 288.74 569.784 285.718 573 283.799C580.302 279.444 587.586 275.023 595 270.861C622.201 255.59 648.73 239.122 676 224C667.047 216.505 655.127 211.378 645 205.573C626.932 195.214 609.064 184.52 591 174.15C583.988 170.124 576.973 166.103 570 162.011C567.124 160.323 563.52 157.549 560 157.924C556.536 158.293 552.991 161.133 550 162.77C541.531 167.406 533.308 172.625 525 177.548C498.967 192.975 472.779 208.91 446 223z"/><path style="fill:#ff107c; stroke:none;" d="M84 262L84 611L84 704L84 728C84 731.157 83.2198 735.683 85.0278 738.471C87.0657 741.612 91.8831 743.344 95 745.201C102.599 749.726 110.351 753.985 118 758.424C137.32 769.637 156.632 780.869 176 792C185.846 797.659 196.165 805.571 207 809L207 739C207 731.213 204.497 718.963 210.969 713.253C214.521 710.12 217.6 712.773 221.001 714.799C227.95 718.941 235.101 722.717 242 726.939C263.625 740.174 285.862 752.781 308 765.14C316.709 770.001 331.287 775.644 335.972 785C338.857 790.759 337 800.678 337 807L337 860L337 877C337.006 879.796 336.628 883.098 338.603 885.366C341.973 889.233 348.586 891.631 353 894.15C363.686 900.251 374.414 906.33 385 912.603C407.843 926.14 431.035 939.096 454 952.424C468.152 960.638 482.178 970.08 497 977L497 639L497 541L497 513C497 509.14 497.924 503.81 496.397 500.185C495.118 497.15 491.682 495.689 489 494.15C482.997 490.707 476.946 487.34 471 483.799C446.213 469.038 420.952 455.057 396 440.576C324.784 399.244 253.512 357.969 182 317.15C160.286 304.756 138.725 292.097 117 279.719C106.601 273.794 95.5052 265.384 84 262z"/>
<path style="fill:#08ff7c; stroke:none;" d="M912 263C813.938 320.832 714.768 376.955 616 433.579C589.294 448.889 562.758 464.498 536 479.719L514 492.421C510.789 494.262 506.023 496.037 504.028 499.329C502.257 502.25 503 506.735 503 510L503 535L503 629L503 975C532.208 959.616 560.447 941.996 589 925.424C658.886 884.865 728.766 844.234 799 804.281C826.108 788.86 853.026 773.079 880 757.424C887.649 752.985 895.402 748.727 903 744.201C905.93 742.456 910.171 740.845 911.972 737.787C913.984 734.371 913 728.808 913 725L913 696L913 589C898.492 593.593 884.096 604.648 871 612.397C845.583 627.436 819.949 642.591 794 656.691C762.962 673.558 732.948 692.269 702 709.306C694.596 713.381 687.289 717.73 680 722.011C677.533 723.46 673.504 727.038 670.425 726.323C667.443 725.631 665.003 721.749 664.318 719C662.364 711.162 664 701.067 664 693L664 610L664 590C664 585.758 663.574 581.568 666.318 578.015C670.978 571.981 679.499 568.417 686 564.719C698.036 557.873 709.996 550.899 722 544C765.651 518.913 809.275 493.808 853 468.85C866.692 461.034 880.304 453.084 894 445.281C899.23 442.301 908.766 438.967 911.972 433.671C913.467 431.202 912.999 427.757 913 425L913 405L913 331L913 284C913 277.58 914.497 268.951 912 263z"/>
<path style="fill: #ffffff;stroke:none;" d="M272 362C277.02 367.437 284.613 370.65 291 374.281C302.367 380.744 313.659 387.341 325 393.85C363.364 415.872 401.995 437.567 440 460.201C453.88 468.467 467.985 476.386 482 484.421C486.887 487.223 494.196 493.451 500 493.451C503.511 493.451 507.079 490.678 510 489C516.992 484.984 524.047 481.073 531 476.989C549.928 465.873 569.072 455.127 588 444.011C596.183 439.205 605.828 435.231 613 429C557.858 395.245 501.083 363.75 445 331.579C430.305 323.149 415.775 314.434 401 306.139C396.419 303.567 389.532 297.334 384 297.924C380.536 298.293 376.991 301.133 374 302.77C365.531 307.406 357.308 312.625 349 317.548C323.514 332.651 297.58 347.056 272 362z"/>
<path style="fill: #ffffff;stroke:none;" d="M1191 306C1169.49 320.191 1146.1 331.742 1124 345C1118.38 348.37 1112.69 351.601 1107 354.85C1104.41 356.328 1100.68 357.781 1099.03 360.39C1097.36 363.016 1098 367.041 1098 370L1098 391L1098 470C1120.77 459.355 1142.2 444.532 1164 432C1170.35 428.353 1176.69 424.697 1183 420.989C1185.57 419.478 1189.26 417.943 1190.97 415.39C1192.52 413.089 1192 409.623 1192 407L1192 389L1192 332C1192 324.256 1194 313.159 1191 306z"/>
<path style="fill: #ffffff;stroke:none;" d="M1103 461C1124.24 452.154 1144 437.659 1164 426.281C1169.36 423.234 1174.7 420.133 1180 416.989C1182.29 415.629 1185.25 414.241 1186.4 411.671C1187.64 408.895 1187 404.963 1187 402L1187 383L1187 315C1178.89 317.953 1171.48 323.292 1164 327.579C1150.63 335.245 1137.23 342.902 1124 350.799C1118.57 354.039 1106.21 358.169 1103.6 364.21C1102.38 367.049 1103 370.981 1103 374L1103 393L1103 461M1000 511C1003.85 509.342 1010.61 506.889 1012.4 502.787C1013.63 499.957 1013 496.011 1013 493L1013 474L1013 406C1009.32 407.34 1002.39 409.596 1000.6 413.39C999.331 416.096 1000 420.093 1000 423L1000 442L1000 511M912 440C890.564 454.184 867.321 466.109 845 478.85C808.277 499.811 771.659 520.931 735 542L688 569C683.331 571.683 672.97 575.336 670.603 580.39C669 583.813 670 589.304 670 593L670 621L670 722C690.405 713.207 709.708 699.482 729 688.421L844 622.421C860.348 613.049 876.81 603.836 893 594.201C898.473 590.943 908.344 587.79 911.972 582.39C913.801 579.669 913 575.106 913 572L913 548L913 473L913 452C913 448.017 913.552 443.699 912 440z"/>
<path style="fill: #ffffff;stroke:none;" d="M218.005 466.421C210.625 468.493 212 478.267 212 484L212 538L212 587C212 593.067 210.248 602.469 213.028 607.999C217.033 615.968 228.621 620.194 236 624.309C253.449 634.037 270.866 644.174 288 654.449C299.581 661.394 311.287 668.127 323 674.85C326.352 676.775 331.868 681.738 335.995 680.579C343.375 678.507 342 668.733 342 663L342 609L342 560C342 553.933 343.752 544.531 340.972 539.001C337.186 531.468 325.995 526.887 319 522.872C300.978 512.527 283.034 502.037 265 491.72L231 472.15C227.648 470.225 222.132 465.262 218.005 466.421z"/>
<path style="fill:#ffffff; stroke:none;" d="M218 471L218 570L218 596C218 599.466 217.105 604.544 219.028 607.621C221.042 610.843 225.824 612.604 229 614.421C236.689 618.82 244.298 623.34 252 627.719C269.748 637.81 287.342 648.176 305 658.424C315.146 664.313 325.228 671.358 336 676L336 577L336 551C336 547.534 336.895 542.456 334.972 539.379C332.939 536.125 328.167 534.45 325 532.551C317.407 527.998 309.688 523.678 302 519.28C284.292 509.15 266.498 499.044 249 488.551C238.984 482.545 228.725 475.622 218 471z"/><path style="fill: #ffffff;stroke:none;" d="M213 716L213 783L213 802C213 805.041 212.395 808.947 213.603 811.815C215.008 815.15 219.064 816.736 222 818.421L244 831.15C264.378 842.782 284.612 854.665 305 866.281C313.621 871.193 322.006 876.801 331 881L331 814L331 795C331 791.981 331.62 788.049 330.397 785.21C328.999 781.967 324.864 780.37 322 778.716L300 766C281.635 755.444 263.273 744.858 245 734.139C234.572 728.022 224.106 720.786 213 716z"/>
</svg>