<svg xmlns="http://www.w3.org/2000/svg" width="1600" height="1000">
<path style="fill: #00000000;stroke:none;" d="M0 0L0 1000L1600 1000L1600 0L0 0z"/>
<path style="fill:#00a1ff; stroke:none;" d="M87 257C130.019 282.37 174.022 306.135 217 331.603C228.922 338.668 240.978 345.529 253 352.421C256.74 354.565 262.487 359.473 267 359.043C269.92 358.765 272.551 356.296 275 354.875L293 344.421C314.711 331.974 336.055 318.783 358 306.77C364.438 303.246 370.563 299.216 377 295.694C379.434 294.363 382.087 292.322 385 292.464C390.117 292.713 395.675 297.711 400 300.139C412.763 307.304 425.378 314.735 438 322.139C479.51 346.489 521.724 369.697 563 394.449C575.881 402.173 589.033 409.437 602 417.012C606.171 419.448 612.247 425.453 617 425.982C619.501 426.261 621.938 424.437 624 423.28L639 414.719C658.388 403.672 677.828 392.618 697 381.201C740.61 355.228 784.978 330.419 829 305.15C856.297 289.481 883.153 272.668 911 258C904.054 249.891 891.136 245.24 882 239.799C859.86 226.614 837.38 213.925 815 201.15C743.463 160.318 672.46 118.547 601 77.5787C576.29 63.4124 551.737 48.9692 527 34.8495L508 23.8511C505.058 22.173 501.523 19.6082 498 19.615C494.449 19.6219 490.956 22.3024 488 24L469 35C444.639 49.0007 420.402 63.2217 396 77.1505C324.797 117.793 254.105 159.335 183 200.15C160.648 212.98 138.143 225.612 116 238.799C106.833 244.259 93.9524 248.83 87 257z"/>
<path style="fill:#00ff78; stroke:none;" d="M1094 262L1094 165C1086.2 167.294 1079.03 172.55 1072 176.579C1059.98 183.471 1047.92 190.332 1036 197.397C1031.1 200.302 1019.03 204.356 1017.32 210.21C1015.54 216.286 1017 224.686 1017 231L1017 276C1017 282.171 1019.31 294.275 1015.97 299.621C1012.51 305.158 1002.47 308.368 997 311.603C982.735 320.044 968.381 328.334 954 336.579C948.188 339.911 938.88 343.307 934.603 348.529C932.669 350.892 933.006 354.14 933 357L933 375L933 445C944.936 441.555 956.385 432.752 967 426.4C983.833 416.326 1001.27 407.243 1018 397L1018 475L1018 496C1018 499.014 1018.61 502.972 1016.97 505.671C1013.79 510.924 1004.15 514.131 999 517.201C983.78 526.265 968.364 535.031 953 543.85C947.75 546.864 937.5 550.656 934.028 555.637C932.612 557.669 933.005 560.664 933 563L933 579L933 641C962.077 627.408 987.517 605.704 1017 593L1017 684C1024.41 681.653 1031.25 676.565 1038 672.719C1052.39 664.523 1066.62 656.057 1081 647.85C1086.01 644.99 1091.07 642.211 1096 639.2C1098.25 637.821 1100.89 636.506 1101.68 633.79C1103.3 628.274 1102 620.727 1102 615L1102 574C1102 568.323 1100.07 558.229 1103.03 553.213C1104.67 550.433 1108.31 548.962 1111 547.421C1116.68 544.163 1122.39 540.967 1128 537.6C1150.43 524.148 1174.16 512.403 1196 498L1196 581C1216.81 572.035 1236.32 558.084 1256 546.85L1271 538.15C1273.34 536.792 1276.26 535.42 1277.4 532.79C1279.26 528.475 1278 521.626 1278 517L1278 483C1278 478.478 1276.65 471.245 1279.03 467.213C1281.83 462.461 1290.35 459.506 1295 456.85C1305.38 450.925 1315.64 444.8 1326 438.85C1330.71 436.146 1337.8 433.493 1341.4 429.366C1345.41 424.758 1343 411.821 1343 406L1343 342C1331.46 346.202 1320.55 354.142 1310 360.397C1296.07 368.65 1281.5 376.066 1268 385L1268 309L1268 288C1268 284.639 1267.31 280.281 1268.6 277.105C1271.03 271.166 1282.69 267.196 1288 264.15C1300.37 257.047 1312.72 249.878 1325 242.603C1329.99 239.647 1337.68 237.007 1341.4 232.471C1343.51 229.889 1343 226.114 1343 223L1343 204L1343 126C1330.14 131.542 1318.07 139.902 1306 146.989C1292.38 154.99 1278.17 162.282 1265 171L1265 66C1257.3 68.8201 1250.11 73.9125 1243 78C1230.99 84.9028 1218.9 91.7111 1207 98.7994C1201.82 101.883 1190.03 105.809 1188.32 112.093C1186.46 118.884 1188 127.975 1188 135L1188 182L1188 199C1187.99 201.459 1188.34 204.435 1186.97 206.621C1185.3 209.295 1181.62 210.843 1179 212.397C1172.7 216.132 1166.35 219.78 1160 223.421C1138.01 236.029 1115.13 248.016 1094 262z"/>
<path style="fill: #ffffff;stroke:none;" d="M440 223C446.849 232.641 459.93 237.818 470 243.579C490.387 255.242 510.629 267.156 531 278.85L552 291.001C554.934 292.676 558.438 295.411 562 295.088C565.841 294.74 569.784 291.718 573 289.799C580.302 285.444 587.586 281.023 595 276.861C612.12 267.25 628.911 257.08 646 247.424C658.328 240.459 671.822 233.961 682 224C675.799 215.276 664.91 211.363 656 205.938C634.283 192.717 611.995 180.341 590 167.576L570 156.011C567.124 154.323 563.52 151.549 560 151.924C556.536 152.293 552.991 155.133 550 156.77C541.531 161.406 533.308 166.625 525 171.548C507.464 181.94 489.707 192.043 472 202.15C461.011 208.423 449.09 214.104 440 223z"/>
<path style="fill:#ff0074; stroke:none;" d="M83 261L83 605L83 700L83 726C83 729.715 82.2253 734.558 84.0278 737.957C86.0049 741.685 90.5096 743.576 94 745.579L117 758.85C136.712 770.102 156.314 781.55 176 792.85C186.035 798.611 196.108 806.035 207 810L207 738C207 730.212 204.408 717.656 211.85 712.532C215.986 709.684 222.434 715.687 226 717.719C239.735 725.545 253.399 733.488 267 741.548C283.186 751.14 299.999 759.789 316 769.684C322.599 773.764 331.08 777.198 335.397 784.001C339.497 790.462 337 803.556 337 811L337 858C337 866.826 338.053 876.376 336 885C361.289 901.68 388.724 915.768 415 930.85C442.302 946.522 469.145 963.329 497 978L497 629L497 535L497 510C497 506.735 497.743 502.25 495.972 499.329C493.977 496.037 489.211 494.262 486 492.421L464 479.719C437.242 464.498 410.706 448.889 384 433.579C316.244 394.734 248.756 355.423 181 316.579C159.642 304.334 138.391 291.907 117 279.719C105.89 273.389 94.8045 265.941 83 261z"/>
<path style="fill:#00ff78; stroke:none;" d="M912 263C813.938 320.832 714.768 376.955 616 433.579C589.294 448.889 562.758 464.498 536 479.719L514 492.421C510.789 494.262 506.023 496.037 504.028 499.329C502.257 502.25 503 506.735 503 510L503 535L503 629L503 975C514.914 971.496 526.255 962.582 537 956.421C558.377 944.166 579.688 931.793 601 919.424C669.226 879.828 737.491 840.255 806 801.15C831.404 786.65 856.575 771.744 882 757.281L903 745.15C905.947 743.468 910.178 741.832 911.972 738.787C913.984 735.371 913 729.808 913 726L913 697L913 589C898.492 593.593 884.096 604.648 871 612.397C845.583 627.436 819.949 642.591 794 656.691C762.962 673.558 732.948 692.269 702 709.306C694.596 713.381 687.289 717.73 680 722.011C677.533 723.46 673.504 727.038 670.425 726.323C667.443 725.631 665.003 721.749 664.318 719C662.364 711.162 664 701.067 664 693L664 610L664 590C664 585.758 663.574 581.568 666.318 578.015C670.978 571.981 679.499 568.417 686 564.719C698.036 557.873 709.996 550.899 722 544C765.651 518.913 809.275 493.808 853 468.85C866.692 461.034 880.304 453.084 894 445.281C899.23 442.301 908.766 438.967 911.972 433.671C913.467 431.202 912.999 427.757 913 425L913 405L913 331L913 284C913 277.58 914.497 268.951 912 263z"/>
<path style="fill: #ffffff;stroke:none;" d="M1191 306C1169.49 320.191 1146.1 331.742 1124 345C1118.38 348.37 1112.69 351.601 1107 354.85C1104.41 356.328 1100.68 357.781 1099.03 360.39C1097.36 363.016 1098 367.041 1098 370L1098 391L1098 470C1120.77 459.355 1142.2 444.532 1164 432C1170.35 428.353 1176.69 424.697 1183 420.989C1185.57 419.478 1189.26 417.943 1190.97 415.39C1192.52 413.089 1192 409.623 1192 407L1192 389L1192 332C1192 324.256 1194 313.159 1191 306M218.005 466.421C210.625 468.493 212 478.267 212 484L212 538L212 587C212 593.067 210.248 602.469 213.028 607.999C217.033 615.968 228.621 620.194 236 624.309C253.449 634.037 270.866 644.174 288 654.449C299.581 661.394 311.287 668.127 323 674.85C326.352 676.775 331.868 681.738 335.995 680.579C343.375 678.507 342 668.733 342 663L342 609L342 560C342 553.933 343.752 544.531 340.972 539.001C337.186 531.468 325.995 526.887 319 522.872C300.978 512.527 283.034 502.037 265 491.72L231 472.15C227.648 470.225 222.132 465.262 218.005 466.421z"/>
</svg>